<svg id="圖層_1" data-name="圖層 1" xmlns="http://www.w3.org/2000/svg" xmlns:xlink="http://www.w3.org/1999/xlink" viewBox="0 0 445.62 450"><defs><style>.cls-1{fill:none;}.cls-2{fill:#161313;}.cls-3{clip-path:url(#clip-path);}</style><clipPath id="clip-path" transform="translate(206 170)"><rect id="SVGID" class="cls-1" x="-206" y="-170" width="445.62" height="450"/></clipPath></defs><title>application_icon4</title><path class="cls-2" d="M-72.83-71.83c-19.69,0-35.71,16.28-35.71,36.29V145.54a36,36,0,0,0,35.71,36.11H106.46a36,36,0,0,0,35.88-36.11V-35.54a36.13,36.13,0,0,0-35.88-36.29ZM106.46,190.42H-72.83c-24.53,0-44.48-20.13-44.48-44.88V-35.54c0-24.84,20-45.05,44.48-45.05H106.46c24.62,0,44.65,20.21,44.65,45.05V145.54a44.81,44.81,0,0,1-44.65,44.88Z" transform="translate(206 170)"/><path class="cls-2" d="M38.81,130.82H82a10,10,0,0,0,10-10V107.15H75.22a4.38,4.38,0,1,1,0-8.77H92V73.49H67.13L52.47,95.23a4.39,4.39,0,0,1-3.63,1.93h-42a4.38,4.38,0,1,1,0-8.77H46.5L61.17,66.66a4.38,4.38,0,0,1,3.63-1.93H92V41.06H64.28a4.38,4.38,0,0,1,0-8.77H92V15.47H52.3a4.38,4.38,0,1,1,0-8.77H92V-10.83A10.11,10.11,0,0,0,82-21H34.82V55.09a4.38,4.38,0,1,1-8.77,0V-21H10.69V11.61a4.38,4.38,0,1,1-8.77,0V-21H-24.89V25.29L-13.72,41a4.38,4.38,0,0,1,.81,2.54V91a4.38,4.38,0,0,1-4.38,4.38A4.38,4.38,0,0,1-21.68,91V44.92L-32.84,29.23a4.38,4.38,0,0,1-.81-2.54V-21H-48.36a10,10,0,0,0-9.85,10.17V120.83a9.93,9.93,0,0,0,9.85,10h37.62V120.65a4.38,4.38,0,0,1,4.38-4.38A4.38,4.38,0,0,1-2,120.65v10.17H30v-16a4.38,4.38,0,0,1,8.77,0v16ZM82,139.58H-48.36A18.71,18.71,0,0,1-67,120.83V-10.83A18.8,18.8,0,0,1-48.36-29.76H82a18.88,18.88,0,0,1,18.79,18.93V120.83A18.8,18.8,0,0,1,82,139.58Z" transform="translate(206 170)"/><path class="cls-2" d="M-53.22-116.53h0ZM-64.81-80.59h9.63v-35.94h-9.63v35.94Zm14,8.77h-18.4a4.38,4.38,0,0,1-4.38-4.38v-42.25a6.92,6.92,0,0,1,7-6.84h13.36a6.75,6.75,0,0,1,6.81,6.84v42.25a4.38,4.38,0,0,1-4.38,4.38Z" transform="translate(206 170)"/><path class="cls-2" d="M-61-125.3h2.17v-34.88c0-1.07-2.17-1.27-2.17,0v34.88Zm6.55,8.77H-65.37a4.38,4.38,0,0,1-4.38-4.38v-39.27A9.8,9.8,0,0,1-60-170a9.89,9.89,0,0,1,9.94,9.82v39.27a4.38,4.38,0,0,1-4.38,4.38Z" transform="translate(206 170)"/><path class="cls-2" d="M-14.86-116.53h0ZM-26.28-80.59h9.63v-35.94h-9.63v35.94Zm14,8.77h-18.4A4.38,4.38,0,0,1-35-76.21v-42.25a6.75,6.75,0,0,1,6.82-6.84h13.36a6.92,6.92,0,0,1,7,6.84v42.25a4.38,4.38,0,0,1-4.38,4.38Z" transform="translate(206 170)"/><path class="cls-2" d="M-22.63-125.3h2.17v-34.88c0-1.27-2.17-1.08-2.17,0v34.88Zm6.55,8.77H-27a4.38,4.38,0,0,1-4.38-4.38v-39.27A9.89,9.89,0,0,1-21.46-170a9.8,9.8,0,0,1,9.76,9.82v39.27a4.38,4.38,0,0,1-4.38,4.38Z" transform="translate(206 170)"/><path class="cls-2" d="M23.49-116.53h0ZM12.08-80.59h9.63v-35.94H12.08v35.94Zm14,8.77H7.7a4.38,4.38,0,0,1-4.38-4.38v-42.25a6.75,6.75,0,0,1,6.81-6.84H23.49a6.92,6.92,0,0,1,7,6.84v42.25a4.38,4.38,0,0,1-4.38,4.38Z" transform="translate(206 170)"/><path class="cls-2" d="M15.73-125.3H17.9v-34.88c0-1.27-2.17-1.07-2.17,0v34.88Zm6.55,8.77H11.34A4.38,4.38,0,0,1,7-120.91v-39.27A9.89,9.89,0,0,1,16.9-170a9.8,9.8,0,0,1,9.76,9.82v39.27a4.38,4.38,0,0,1-4.38,4.38Z" transform="translate(206 170)"/><path class="cls-2" d="M62-116.53h0ZM50.44-80.59h9.63v-35.94H50.44v35.94Zm14,8.77H46.06a4.38,4.38,0,0,1-4.38-4.38v-42.25a6.75,6.75,0,0,1,6.81-6.84H62a6.92,6.92,0,0,1,6.81,6.84v42.25a4.38,4.38,0,0,1-4.38,4.38Z" transform="translate(206 170)"/><path class="cls-2" d="M54.08-125.3h2.17v-34.88c0-1.27-2.17-1.07-2.17,0v34.88Zm6.55,8.77H49.7a4.38,4.38,0,0,1-4.38-4.38v-39.27A9.89,9.89,0,0,1,55.26-170,9.8,9.8,0,0,1,65-160.18v39.27a4.38,4.38,0,0,1-4.38,4.38Z" transform="translate(206 170)"/><path class="cls-2" d="M100.38-116.53h0ZM88.8-80.59h9.63v-35.94H88.8v35.94Zm14,8.77H84.42A4.38,4.38,0,0,1,80-76.21v-42.25a6.92,6.92,0,0,1,6.81-6.84h13.54a6.75,6.75,0,0,1,6.81,6.84v42.25a4.38,4.38,0,0,1-4.38,4.38Z" transform="translate(206 170)"/><path class="cls-2" d="M92.44-125.3h2.34v-34.88a1.23,1.23,0,0,0-1.17-1.05,1.23,1.23,0,0,0-1.17,1.05v34.88Zm6.73,8.77H88.06a4.38,4.38,0,0,1-4.38-4.38v-39.27A10,10,0,0,1,93.61-170a10,10,0,0,1,9.94,9.82v39.27a4.38,4.38,0,0,1-4.38,4.38Z" transform="translate(206 170)"/><path class="cls-2" d="M-64.81,226.36h9.63V190.42h-9.63v35.94Zm11.58,8.77H-66.59a6.92,6.92,0,0,1-7-6.84V186a4.38,4.38,0,0,1,4.38-4.38h18.4A4.38,4.38,0,0,1-46.41,186v42.25a6.75,6.75,0,0,1-6.81,6.84Z" transform="translate(206 170)"/><path class="cls-2" d="M-61,235.12V270c0,1.55,2.17,1.32,2.17,0V235.12ZM-60,280a9.89,9.89,0,0,1-9.76-10V230.74a4.38,4.38,0,0,1,4.38-4.38h10.93a4.38,4.38,0,0,1,4.38,4.38V270A9.86,9.86,0,0,1-60,280Z" transform="translate(206 170)"/><path class="cls-2" d="M-26.28,226.36h9.63V190.42h-9.63v35.94Zm11.41,8.77H-28.23A6.75,6.75,0,0,1-35,228.29V186a4.38,4.38,0,0,1,4.38-4.38h18.4A4.38,4.38,0,0,1-7.88,186v42.25a6.92,6.92,0,0,1-7,6.84Z" transform="translate(206 170)"/><path class="cls-2" d="M-22.63,235.12V270a1.08,1.08,0,0,0,2.17,0V235.12ZM-21.46,280a9.86,9.86,0,0,1-9.93-10V230.74A4.38,4.38,0,0,1-27,226.36h10.93a4.38,4.38,0,0,1,4.38,4.38V270a9.89,9.89,0,0,1-9.76,10Z" transform="translate(206 170)"/><path class="cls-2" d="M12.08,226.36h9.63V190.42H12.08v35.94Zm11.41,8.77H10.13a6.75,6.75,0,0,1-6.81-6.84V186a4.38,4.38,0,0,1,4.38-4.38H26.1A4.38,4.38,0,0,1,30.48,186v42.25a6.92,6.92,0,0,1-7,6.84Z" transform="translate(206 170)"/><path class="cls-2" d="M15.73,235.12V270a1.14,1.14,0,0,0,1.17,1.23,1.11,1.11,0,0,0,1-1.23V235.12ZM16.9,280A9.86,9.86,0,0,1,7,270V230.74a4.38,4.38,0,0,1,4.38-4.38H22.28a4.38,4.38,0,0,1,4.38,4.38V270a9.89,9.89,0,0,1-9.76,10Z" transform="translate(206 170)"/><path class="cls-2" d="M50.44,226.36h9.63V190.42H50.44v35.94ZM62,235.12H48.49a6.75,6.75,0,0,1-6.81-6.84V186a4.38,4.38,0,0,1,4.38-4.38h18.4A4.38,4.38,0,0,1,68.84,186v42.25A6.92,6.92,0,0,1,62,235.12Z" transform="translate(206 170)"/><path class="cls-2" d="M54.08,235.12V270a1.14,1.14,0,0,0,1.17,1.23,1.11,1.11,0,0,0,1-1.23V235.12ZM55.26,280a9.86,9.86,0,0,1-9.94-10V230.74a4.38,4.38,0,0,1,4.38-4.38H60.64A4.38,4.38,0,0,1,65,230.74V270a9.89,9.89,0,0,1-9.76,10Z" transform="translate(206 170)"/><path class="cls-2" d="M88.8,226.36h9.63V190.42H88.8v35.94Zm11.58,8.77H86.84A6.91,6.91,0,0,1,80,228.29V186a4.38,4.38,0,0,1,4.38-4.38h18.4a4.38,4.38,0,0,1,4.38,4.38v42.25a6.75,6.75,0,0,1-6.81,6.84Z" transform="translate(206 170)"/><path class="cls-2" d="M92.44,235.12V270a1.18,1.18,0,0,0,2.34,0V235.12ZM93.61,280a10,10,0,0,1-9.94-10V230.74a4.38,4.38,0,0,1,4.38-4.38H99.17a4.38,4.38,0,0,1,4.38,4.38V270a10,10,0,0,1-9.94,10Z" transform="translate(206 170)"/><g class="cls-3"><path class="cls-2" d="M151.11-17.66H186.6v-9.82H151.11v9.82ZM188.55-8.9H146.72a4.38,4.38,0,0,1-4.38-4.38V-31.86a4.38,4.38,0,0,1,4.38-4.38h41.83a6.75,6.75,0,0,1,6.82,6.84v13.67a6.92,6.92,0,0,1-6.82,6.84Z" transform="translate(206 170)"/><path class="cls-2" d="M195.37-21.52h34.49a1.05,1.05,0,0,0,1-1.05,1.12,1.12,0,0,0-1-1.23H195.37v2.28Zm34.49,8.77H191a4.38,4.38,0,0,1-4.38-4.38v-11A4.38,4.38,0,0,1,191-32.56h38.88a9.89,9.89,0,0,1,9.76,10,9.8,9.8,0,0,1-9.76,9.82Z" transform="translate(206 170)"/><path class="cls-2" d="M151.11,21.08H186.6V11.26H151.11v9.82Zm37.45,8.77H146.72a4.38,4.38,0,0,1-4.38-4.38V6.88a4.38,4.38,0,0,1,4.38-4.38h41.83a6.92,6.92,0,0,1,6.82,6.84V23a6.75,6.75,0,0,1-6.82,6.84Z" transform="translate(206 170)"/><path class="cls-2" d="M195.37,17.4h34.49a1.25,1.25,0,0,0,0-2.46H195.37V17.4Zm34.49,8.77H191a4.38,4.38,0,0,1-4.38-4.38V10.56A4.38,4.38,0,0,1,191,6.18h38.88a10,10,0,0,1,0,20Z" transform="translate(206 170)"/><path class="cls-2" d="M151.11,59.82H186.6V50H151.11v9.81Zm37.45,8.77H146.72a4.38,4.38,0,0,1-4.38-4.38V45.62a4.38,4.38,0,0,1,4.38-4.38h41.83a6.92,6.92,0,0,1,6.82,7v13.5a6.75,6.75,0,0,1-6.82,6.84Z" transform="translate(206 170)"/><path class="cls-2" d="M195.37,56.14h34.49a1.12,1.12,0,0,0,1-1.23,1.05,1.05,0,0,0-1-1.05H195.37v2.28Zm34.49,8.77H191a4.38,4.38,0,0,1-4.38-4.38v-11A4.38,4.38,0,0,1,191,45.1h38.88a9.91,9.91,0,0,1,0,19.81Z" transform="translate(206 170)"/><path class="cls-2" d="M151.11,98.56H186.6V88.75H151.11v9.82Zm37.45,8.77H146.72a4.38,4.38,0,0,1-4.38-4.38V84.36A4.38,4.38,0,0,1,146.72,80h41.83a6.92,6.92,0,0,1,6.82,7v13.5a6.75,6.75,0,0,1-6.82,6.84Z" transform="translate(206 170)"/><path class="cls-2" d="M195.37,94.88h34.49a1.12,1.12,0,0,0,1-1.23,1.05,1.05,0,0,0-1-1.05H195.37v2.28Zm34.49,8.77H191a4.38,4.38,0,0,1-4.38-4.38v-11A4.38,4.38,0,0,1,191,83.84h38.88a9.91,9.91,0,0,1,0,19.81Z" transform="translate(206 170)"/><path class="cls-2" d="M151.11,137.48H186.6v-9.82H151.11v9.82Zm37.45,8.77H146.72a4.38,4.38,0,0,1-4.38-4.38V123.28a4.38,4.38,0,0,1,4.38-4.38h41.83a6.75,6.75,0,0,1,6.82,6.84v13.5a6.92,6.92,0,0,1-6.82,7Z" transform="translate(206 170)"/><path class="cls-2" d="M195.37,133.62h34.49a1.05,1.05,0,0,0,1-1.05,1.12,1.12,0,0,0-1-1.23H195.37v2.28Zm34.49,8.77H191A4.38,4.38,0,0,1,186.6,138V127a4.38,4.38,0,0,1,4.38-4.38h38.88a9.91,9.91,0,0,1,0,19.81Z" transform="translate(206 170)"/></g><path class="cls-2" d="M-153-17.66h35.67v-9.82H-153v9.82Zm40,8.77h-41.83a7,7,0,0,1-7-6.84V-29.41a6.92,6.92,0,0,1,7-6.84h41.83a4.38,4.38,0,0,1,4.38,4.38v18.58a4.38,4.38,0,0,1-4.38,4.38Z" transform="translate(206 170)"/><path class="cls-2" d="M-196.06-23.8a1.14,1.14,0,0,0-1.17,1.23,1.09,1.09,0,0,0,1.17,1.05h34.32V-23.8Zm38.7,11h-38.7A9.89,9.89,0,0,1-206-22.57a9.86,9.86,0,0,1,9.94-10h38.7A4.38,4.38,0,0,1-153-28.18v11a4.38,4.38,0,0,1-4.38,4.38Z" transform="translate(206 170)"/><path class="cls-2" d="M-153,21.08h35.67V11.26H-153v9.82Zm40,8.77h-41.83a6.92,6.92,0,0,1-7-6.84V9.33a7,7,0,0,1,7-6.84h41.83a4.38,4.38,0,0,1,4.38,4.38V25.46a4.38,4.38,0,0,1-4.38,4.38Z" transform="translate(206 170)"/><path class="cls-2" d="M-196.06,14.94a1.25,1.25,0,0,0-1.17,1.23,1.25,1.25,0,0,0,1.17,1.23h34.32V14.94Zm38.7,11.22h-38.7a10,10,0,0,1-9.94-10,10,10,0,0,1,9.94-10h38.7A4.38,4.38,0,0,1-153,10.56V21.78a4.38,4.38,0,0,1-4.38,4.38Z" transform="translate(206 170)"/><path class="cls-2" d="M-153,59.82h35.67V50H-153v9.81Zm40,8.77h-41.83a6.92,6.92,0,0,1-7-6.84V48.25a7.09,7.09,0,0,1,7-7h41.83a4.38,4.38,0,0,1,4.38,4.38V64.2a4.38,4.38,0,0,1-4.38,4.38Z" transform="translate(206 170)"/><path class="cls-2" d="M-196.06,53.86a1.09,1.09,0,0,0-1.17,1.05,1.14,1.14,0,0,0,1.17,1.23h34.32V53.86Zm38.7,11h-38.7a9.86,9.86,0,0,1-9.94-10,9.89,9.89,0,0,1,9.94-9.82h38.7A4.38,4.38,0,0,1-153,49.48v11a4.38,4.38,0,0,1-4.38,4.38Z" transform="translate(206 170)"/><path class="cls-2" d="M-153,98.56h35.67V88.75H-153v9.82Zm40,8.77h-41.83a6.92,6.92,0,0,1-7-6.84V87a7.09,7.09,0,0,1,7-7h41.83a4.38,4.38,0,0,1,4.38,4.38v18.58a4.38,4.38,0,0,1-4.38,4.38Z" transform="translate(206 170)"/><path class="cls-2" d="M-196.06,92.6a1.09,1.09,0,0,0-1.17,1.05,1.14,1.14,0,0,0,1.17,1.23h34.32V92.6Zm38.7,11h-38.7a9.86,9.86,0,0,1-9.94-10,9.89,9.89,0,0,1,9.94-9.82h38.7A4.38,4.38,0,0,1-153,88.22v11a4.38,4.38,0,0,1-4.38,4.38Z" transform="translate(206 170)"/><path class="cls-2" d="M-153,137.48h35.67v-9.82H-153v9.82Zm40,8.77h-41.83a7.1,7.1,0,0,1-7-7v-13.5a6.92,6.92,0,0,1,7-6.84h41.83a4.38,4.38,0,0,1,4.38,4.38v18.58a4.38,4.38,0,0,1-4.38,4.38Z" transform="translate(206 170)"/><path class="cls-2" d="M-196.06,131.34a1.14,1.14,0,0,0-1.17,1.23,1.09,1.09,0,0,0,1.17,1.05h34.32v-2.28Zm38.7,11h-38.7a9.89,9.89,0,0,1-9.94-9.82,9.86,9.86,0,0,1,9.94-10h38.7A4.38,4.38,0,0,1-153,127v11a4.38,4.38,0,0,1-4.38,4.38Z" transform="translate(206 170)"/></svg>