<?xml version="1.0" encoding="utf-8"?>
<!-- Generator: Adobe Illustrator 21.0.0, SVG Export Plug-In . SVG Version: 6.00 Build 0)  -->
<svg version="1.1" id="圖層_1" xmlns="http://www.w3.org/2000/svg" xmlns:xlink="http://www.w3.org/1999/xlink" x="0px" y="0px"
	 viewBox="0 0 60 65.6" style="enable-background:new 0 0 60 65.6;" xml:space="preserve">
<style type="text/css">
	.st0{fill-rule:evenodd;clip-rule:evenodd;}
</style>
<path class="st0" d="M58.5,17.2h-3.3v-6.6h2.3c0.5,0,1,0.5,1,1V17.2z M51,50.4V5.6c0-1.1-0.9-2-2-2h-2.1c-1.1,0-2,0.9-2,2v44.8h-2.8
	V18V9.8V1.5h11.6v8.3V18v32.4H51z M49.5,50.4h-3.1V5.6c0-0.3,0.2-0.5,0.5-0.5H49c0.3,0,0.5,0.2,0.5,0.5V50.4z M56.1,53.3h-0.6H2.1
	H1.5v-1.4h39.9h4.3h4.6h4.2h1.7V53.3z M54.8,61.1h-52v-6.3h52V61.1z M56.1,64.1H1.5v-1.4h0.6h53.5h0.6V64.1z M27.9,17.2v-6.6h12.7
	v6.6H27.9z M26.4,20.3c0,1.4-1.1,2.6-2.4,2.6h-0.1h-6.4h-0.1c-1.3,0-2.5-1.2-2.5-2.6V7.5c0-1.4,1.1-2.6,2.5-2.6h0.1h6.4H24
	c1.3,0,2.4,1.2,2.4,2.6v2.3V18V20.3z M23.1,24.6c0,0.1-0.1,0.1-0.1,0.1h-1.1h-2.4h-1.1c-0.1,0-0.1-0.1-0.1-0.1v-0.2h4.9V24.6z
	 M21.2,28.2h-0.9v-2h0.9V28.2z M23.7,30.4v4.3L23,35.2h-1h-2.4h-1.1l-0.7-0.6v-4.3l0.7-0.6h1.1h2.4h1L23.7,30.4z M21.2,39.7
	l-0.5,0.4l-0.5-0.4v-3h0.9V39.7z M18.3,2.3c0-0.1,0-0.1,0.1-0.1H23c0.1,0,0.1,0.1,0.1,0.1v1.1h-4.9V2.3z M57.5,9.1h-2.3V0.8
	c0-0.4-0.3-0.8-0.8-0.8H41.4c-0.4,0-0.8,0.3-0.8,0.8v8.3H27.9V7.5c0-2-1.4-3.7-3.3-4V2.3c0-0.9-0.7-1.7-1.6-1.7h-4.6
	c-0.9,0-1.6,0.8-1.6,1.7v1.2c-1.9,0.3-3.3,2-3.3,4v12.9c0,2,1.4,3.7,3.3,4v0.2c0,0.9,0.7,1.7,1.6,1.7h0.4v2h-0.6
	c-0.2,0-0.4,0.1-0.5,0.2l-1.2,1c-0.2,0.1-0.3,0.4-0.3,0.6v5c0,0.2,0.1,0.5,0.3,0.6l1.2,1c0.1,0.1,0.3,0.2,0.5,0.2h0.6V40
	c0,0.2,0.1,0.4,0.3,0.6l1,0.9c0.1,0.1,0.3,0.2,0.5,0.2H21c0.2,0,0.4-0.1,0.5-0.2l1-0.9c0.2-0.1,0.3-0.3,0.3-0.6v-3.3h0.6
	c0.2,0,0.3-0.1,0.5-0.2l1.2-1c0.2-0.1,0.3-0.4,0.3-0.6v-5c0-0.2-0.1-0.5-0.3-0.6l-1.2-1c-0.1-0.1-0.3-0.2-0.5-0.2h-0.6v-2H23
	c0.9,0,1.6-0.7,1.6-1.7v-0.2c1.9-0.3,3.3-2,3.3-4v-1.6h12.7v31.6H0.8c-0.4,0-0.8,0.3-0.8,0.8V54c0,0.4,0.3,0.8,0.8,0.8h0.6v6.3H0.8
	c-0.4,0-0.8,0.4-0.8,0.8v2.9c0,0.4,0.3,0.8,0.8,0.8h56.1c0.4,0,0.8-0.3,0.8-0.8v-2.9c0-0.4-0.3-0.8-0.8-0.8h-0.6v-6.3h0.6
	c0.4,0,0.8-0.3,0.8-0.8v-2.9c0-0.4-0.3-0.8-0.8-0.8h-1.7V18.8h4c0.4,0,0.8-0.4,0.8-0.8v-6.4C60,10.2,58.9,9.1,57.5,9.1z"/>
</svg>
