<?xml version="1.0" encoding="utf-8"?>
<!-- Generator: Adobe Illustrator 21.0.0, SVG Export Plug-In . SVG Version: 6.00 Build 0)  -->
<svg version="1.1" id="圖層_1" xmlns="http://www.w3.org/2000/svg" xmlns:xlink="http://www.w3.org/1999/xlink" x="0px" y="0px"
	 viewBox="0 0 65.6 65.6" style="enable-background:new 0 0 65.6 65.6;" xml:space="preserve">
<style type="text/css">
	.st0{fill:#040000;}
</style>
<g>
	<path class="st0" d="M38.1,38.1c-1.3,1.3-3.2,2.2-5.3,2.2c-2.1,0-3.9-0.8-5.3-2.2c-1.3-1.3-2.2-3.2-2.2-5.3c0-2.1,0.8-3.9,2.2-5.3
		c1.3-1.3,3.2-2.2,5.3-2.2c2.1,0,3.9,0.8,5.3,2.2c1.3,1.3,2.2,3.2,2.2,5.3C40.2,34.9,39.4,36.7,38.1,38.1L38.1,38.1z M32.8,23.8
		c-5,0-9,4-9,9c0,5,4,9,9,9c5,0,9-4,9-9C41.8,27.8,37.8,23.8,32.8,23.8L32.8,23.8z"/>
	<path class="st0" d="M34.7,34.7c-0.5,0.5-1.2,0.8-1.9,0.8c-0.8,0-1.4-0.3-1.9-0.8c-0.5-0.5-0.8-1.2-0.8-1.9c0-0.8,0.3-1.4,0.8-1.9
		c0.5-0.5,1.2-0.8,1.9-0.8c0.8,0,1.4,0.3,1.9,0.8c0.5,0.5,0.8,1.2,0.8,1.9C35.5,33.6,35.2,34.2,34.7,34.7L34.7,34.7z M32.8,28.5
		c-2.4,0-4.3,1.9-4.3,4.3c0,2.4,1.9,4.3,4.3,4.3c2.4,0,4.3-1.9,4.3-4.3C37.1,30.4,35.2,28.5,32.8,28.5L32.8,28.5z"/>
	<path class="st0" d="M26.7,12.1c1.9-0.6,4-0.9,6.1-0.9c4.8,0,9.1,1.5,12.7,4.2l-1,1.1c-1.2-0.9-2.5-1.6-3.9-2.2
		c-0.4-0.2-0.9,0-1,0.4c-0.2,0.4,0,0.9,0.4,1l0,0c6.6,2.8,11.3,9.4,11.3,17c0,0.9-0.1,1.9-0.2,2.8c-0.1,0.4,0.2,0.8,0.7,0.9
		c0.4,0.1,0.8-0.2,0.9-0.7c0.1-1,0.2-2,0.2-3c0-6.1-2.7-11.6-7.1-15.3l1-1.1c0,0,0.1,0.1,0.1,0.1c3.8,3.3,6.4,7.8,7.2,13
		c0.1,0.4,0.5,0.7,0.9,0.7c0.4-0.1,0.7-0.5,0.7-0.9c-0.8-5.5-3.7-10.4-7.7-14c-4-3.5-9.3-5.6-15.1-5.6c-2.3,0-4.4,0.3-6.5,0.9
		c-0.4,0.1-0.7,0.6-0.5,1C25.9,12,26.3,12.3,26.7,12.1L26.7,12.1z"/>
	<path class="st0" d="M11.7,40c0.4-0.1,0.7-0.6,0.5-1c-0.6-2-0.9-4.1-0.9-6.2c0-3.3,0.7-6.3,2-9.1l1.3,0.7c-0.8,1.6-1.3,3.4-1.6,5.2
		c-0.1,0.4,0.2,0.8,0.7,0.9c0.4,0.1,0.8-0.2,0.9-0.7c0.9-5.4,4.1-10,8.6-12.7l0.7,1.3c-0.5,0.3-0.9,0.6-1.4,0.9
		c-2.9,2.2-5,5.2-6,8.8c-0.1,0.4,0.1,0.9,0.5,1c0.4,0.1,0.9-0.1,1-0.5c0.9-3.2,2.9-6,5.5-8c2.1-1.6,4.6-2.7,7.3-3l0.1,1.5
		c-4.7,0.7-8.6,3.7-10.6,7.8c-0.2,0.4,0,0.9,0.4,1.1c0.4,0.2,0.9,0,1.1-0.4v0c2-4.2,6.3-7,11.2-7c1.1,0,2.2,0.1,3.2,0.4
		c0.4,0.1,0.9-0.1,1-0.6c0.1-0.4-0.1-0.9-0.6-1c-1.2-0.3-2.4-0.5-3.6-0.5c-0.1,0-0.3,0-0.4,0l-0.1-1.5c0.2,0,0.3,0,0.5,0
		c3.3,0,6.3,1,8.8,2.7c2.5,1.7,4.5,4.2,5.6,7c0.2,0.4,0.6,0.6,1,0.4c0.4-0.2,0.6-0.6,0.4-1c-1.2-3.1-3.4-5.8-6.2-7.7
		c-2.7-1.9-6.1-3-9.7-3c-0.5,0-0.9,0-1.3,0.1c0,0,0,0,0,0c0,0,0,0,0,0c-2.2,0.2-4.3,0.8-6.2,1.7l-0.7-1.3c0.4-0.2,0.7-0.3,1.1-0.5
		c0.4-0.2,0.6-0.6,0.4-1c-0.2-0.4-0.6-0.6-1-0.4c-0.6,0.3-1.2,0.6-1.8,0.9c0,0,0,0-0.1,0c0,0,0,0-0.1,0c-3.2,1.8-5.9,4.5-7.7,7.7
		L14,22.3c0.5-1,1.1-1.9,1.8-2.7c0.3-0.3,0.2-0.8-0.1-1.1c-0.3-0.3-0.8-0.2-1.1,0.1c-0.9,1.1-1.7,2.4-2.3,3.7c0,0,0,0,0,0
		c0,0,0,0,0,0c-1.6,3.1-2.5,6.7-2.5,10.5c0,2.3,0.3,4.6,1,6.7C10.8,39.9,11.3,40.2,11.7,40L11.7,40z"/>
	<path class="st0" d="M45.1,53.5c0.4,0,0.8-0.4,0.8-0.8c0-0.4-0.4-0.8-0.8-0.8H20.9c-0.4,0-0.8,0.4-0.8,0.8c0,0.4,0.4,0.8,0.8,0.8
		h7.6v1.2h-7.6c-0.4,0-0.8,0.4-0.8,0.8c0,0.4,0.4,0.8,0.8,0.8h7.6v1.1h-7.6c-0.4,0-0.8,0.4-0.8,0.8c0,0.4,0.4,0.8,0.8,0.8h24.2
		c0.4,0,0.8-0.4,0.8-0.8c0-0.4-0.4-0.8-0.8-0.8h-15v-1.1h15c0.4,0,0.8-0.4,0.8-0.8c0-0.4-0.4-0.8-0.8-0.8h-15v-1.2H45.1L45.1,53.5z"
		/>
	<path class="st0" d="M14.5,13c0-0.2,0.1-0.3,0.3-0.3h4.8c0.2,0,0.3,0.1,0.3,0.3v1c0,0.2-0.1,0.3-0.3,0.3h-4.8
		c-0.2,0-0.3-0.1-0.3-0.3V13L14.5,13z M14.8,15.9h4.8c1.1,0,1.9-0.9,1.9-1.9v-1c0-1.1-0.9-1.9-1.9-1.9h-4.8c-1.1,0-1.9,0.9-1.9,1.9
		v1C12.9,15,13.8,15.8,14.8,15.9L14.8,15.9z"/>
	<path class="st0" d="M16,44.5v-1c0-0.2,0.1-0.3,0.3-0.3h4.8c0.2,0,0.3,0.1,0.3,0.3v1c0,0.2-0.1,0.3-0.3,0.3h-4.8
		C16.1,44.8,16,44.7,16,44.5L16,44.5z M23.1,44.5v-1c0-1.1-0.9-1.9-1.9-1.9h-4.8c-1.1,0-1.9,0.9-1.9,1.9v1c0,1.1,0.9,1.9,1.9,1.9
		h4.8C22.2,46.4,23.1,45.5,23.1,44.5L23.1,44.5z"/>
	<path class="st0" d="M48.9,38v1c0,0.2-0.1,0.3-0.3,0.3h-4.8c-0.2,0-0.3-0.1-0.3-0.3v-1c0-0.2,0.1-0.3,0.3-0.3h4.8
		C48.7,37.7,48.9,37.9,48.9,38L48.9,38z M43.7,36.1c-1.1,0-1.9,0.9-1.9,1.9v1c0,1.1,0.9,1.9,1.9,1.9h4.8c1.1,0,1.9-0.9,1.9-1.9v-1
		c0-1.1-0.9-1.9-1.9-1.9H43.7L43.7,36.1z"/>
	<path class="st0" d="M54.8,49.6c0,0.2-0.1,0.3-0.3,0.3h-4.8c-0.2,0-0.3-0.1-0.3-0.3v-1c0-0.2,0.1-0.3,0.3-0.3h4.8
		c0.2,0,0.3,0.1,0.3,0.3V49.6L54.8,49.6z M54.5,46.7h-4.8c-1.1,0-1.9,0.9-1.9,1.9v1c0,1.1,0.9,1.9,1.9,1.9h4.8
		c1.1,0,1.9-0.9,1.9-1.9v-1C56.4,47.6,55.5,46.7,54.5,46.7L54.5,46.7z"/>
	<path class="st0" d="M40.2,46.7v1c0,0.2-0.1,0.3-0.3,0.3h-4.8c-0.2,0-0.3-0.1-0.3-0.3v-1c0-0.2,0.1-0.3,0.3-0.3h4.8
		C40.1,46.4,40.2,46.5,40.2,46.7L40.2,46.7z M35.1,44.8c-1.1,0-1.9,0.9-1.9,1.9v1c0,1.1,0.9,1.9,1.9,1.9h4.8c1.1,0,1.9-0.9,1.9-1.9
		v-1c0-1.1-0.9-1.9-1.9-1.9H35.1L35.1,44.8z"/>
	<path class="st0" d="M54.9,54.9C49.2,60.5,41.4,64,32.8,64c-8.6,0-16.4-3.5-22.1-9.1c-5.7-5.7-9.1-13.5-9.1-22.1
		c0-8.6,3.5-16.4,9.1-22.1c5.7-5.7,13.5-9.1,22.1-9.1c8.6,0,16.4,3.5,22.1,9.1c5.7,5.7,9.1,13.5,9.1,22.1
		C64,41.4,60.5,49.2,54.9,54.9L54.9,54.9z M32.8,0C14.7,0,0,14.7,0,32.8c0,18.1,14.7,32.8,32.8,32.8c18.1,0,32.8-14.7,32.8-32.8
		C65.6,14.7,50.9,0,32.8,0L32.8,0z"/>
	<path class="st0" d="M13.7,47.5H9.2c-0.4,0-0.8,0.4-0.8,0.8c0,0.4,0.4,0.8,0.8,0.8h4.5c0.4,0,0.8-0.4,0.8-0.8
		C14.5,47.9,14.1,47.5,13.7,47.5L13.7,47.5z"/>
	<path class="st0" d="M38.8,8.3h3.9c0.4,0,0.8-0.4,0.8-0.8c0-0.4-0.4-0.8-0.8-0.8h-3.9c-0.4,0-0.8,0.4-0.8,0.8
		C38,8,38.3,8.3,38.8,8.3L38.8,8.3z"/>
	<path class="st0" d="M58.3,31.5c-0.4,0-0.8,0.4-0.8,0.8v6.2c0,0.4,0.4,0.8,0.8,0.8s0.8-0.4,0.8-0.8v-6.2
		C59.1,31.8,58.8,31.5,58.3,31.5L58.3,31.5z"/>
	<path class="st0" d="M6,28c-0.4,0-0.8,0.4-0.8,0.8V33c0,0.4,0.4,0.8,0.8,0.8c0.4,0,0.8-0.4,0.8-0.8v-4.2C6.8,28.4,6.5,28,6,28L6,28
		z"/>
	<path class="st0" d="M20.7,34.6h-3.5c-0.4,0-0.8,0.4-0.8,0.8c0,0.4,0.4,0.8,0.8,0.8h3.5c0.4,0,0.8-0.4,0.8-0.8
		C21.5,34.9,21.2,34.6,20.7,34.6L20.7,34.6z"/>
</g>
</svg>
