<?xml version="1.0" encoding="utf-8"?>
<!-- Generator: Adobe Illustrator 21.0.0, SVG Export Plug-In . SVG Version: 6.00 Build 0)  -->
<svg version="1.1" id="圖層_1" xmlns="http://www.w3.org/2000/svg" xmlns:xlink="http://www.w3.org/1999/xlink" x="0px" y="0px"
	 viewBox="0 0 60 65.6" style="enable-background:new 0 0 60 65.6;" xml:space="preserve">
<style type="text/css">
	.st0{stroke:#000000;stroke-width:0.5;stroke-miterlimit:10;}
</style>
<g>
	<path class="st0" d="M39.3,46.4c-2.6,2.2-5.9,3.5-9.3,3.5s-6.7-1.2-9.3-3.5c-0.2-0.2-0.6-0.2-0.8,0.1c-0.2,0.2-0.2,0.6,0.1,0.8
		c2.8,2.4,6.4,3.7,10,3.7c3.7,0,7.2-1.3,10-3.7c0.2-0.2,0.3-0.6,0.1-0.8C39.9,46.2,39.5,46.2,39.3,46.4z"/>
	<path class="st0" d="M34.8,21.7c5.7,2,9.5,7.5,9.5,13.7c0,0.9-0.1,1.7-0.2,2.7c-0.1,0.3,0.2,0.6,0.5,0.6h0.1c0.3,0,0.5-0.2,0.5-0.5
		c0.2-1,0.2-1.9,0.2-2.8c0-6.6-4.1-12.5-10.3-14.7c-0.3-0.1-0.6,0-0.7,0.3C34.4,21.3,34.5,21.6,34.8,21.7z"/>
	<path class="st0" d="M15.4,38.7h0.1c0.3-0.1,0.5-0.3,0.4-0.6c-0.2-0.8-0.2-1.7-0.2-2.6c0-6.1,3.8-11.6,9.5-13.7
		c0.3-0.1,0.4-0.4,0.3-0.7c-0.1-0.3-0.4-0.4-0.7-0.3c-6.1,2.2-10.3,8.1-10.3,14.7c0,1,0.1,2,0.3,2.9C14.9,38.5,15.1,38.7,15.4,38.7z
		"/>
	<path class="st0" d="M49.2,41.4c-2.7-1.6-5.6-2.8-8.4-3.6c0.2-0.8,0.3-1.6,0.3-2.4c0-4.9-3.1-9.2-7.7-10.6c0.7-2.9,1.1-6,1.1-9.2
		c0-9-1.7-14.9-4.4-14.9c-2.6,0-4.4,5.8-4.4,14.9c0,3.2,0.4,6.3,1.1,9.2c-4.6,1.4-7.7,5.7-7.7,10.6c0,0.8,0.1,1.6,0.3,2.4
		c-2.8,0.8-5.7,2-8.4,3.6C3.1,46-1.1,50.4,0.3,52.7c0.3,0.5,1,1.1,2.6,1.1c0.7,0,1.5-0.1,2.4-0.3c2.7-0.6,6.1-2.2,10-4.4
		c2.7-1.6,5.2-3.5,7.4-5.6c2,1.9,4.6,2.9,7.4,2.9s5.4-1,7.4-2.9c2.1,2.1,4.6,4,7.3,5.6l0,0c3.8,2.2,7.3,3.8,10,4.4
		c1,0.2,1.8,0.3,2.4,0.3c1.5,0,2.2-0.5,2.6-1.1C61.1,50.4,56.9,46,49.2,41.4z M33,25.8c4.1,1.3,6.9,5.1,6.9,9.5
		c0,0.7-0.1,1.4-0.2,2.1c-0.2-0.1-0.4-0.1-0.6-0.1c-0.4-0.1-0.8-0.2-1.2-0.3c-0.3,0.1-0.6,0-0.9,0c-0.4-0.1-0.8-0.1-1.2-0.2
		c-0.2,0-0.3,0-0.5-0.1v-0.1c0-0.2,0.1-0.3,0.1-0.5c0-0.1,0-0.1,0-0.2c0-0.2,0-0.4,0-0.6c0-0.3,0-0.6-0.1-0.8v-0.1
		c0-0.3-0.1-0.5-0.2-0.8c0,0,0,0,0-0.1c-0.2-0.6-0.5-1.1-0.8-1.5l0,0c-0.7-0.9-1.7-1.7-2.9-2c0.1-0.1,0.1-0.3,0.2-0.4
		c0.2-0.4,0.3-0.8,0.5-1.1c0.1-0.3,0.2-0.5,0.3-0.8c0.1-0.4,0.3-0.8,0.4-1.2C32.9,26.3,33,26.1,33,25.8z M32.5,39.1
		c-0.2,0.1-0.4,0.3-0.7,0.4h-0.1c-0.2,0.1-0.5,0.2-0.7,0.2h-0.1c-0.3,0.1-0.5,0.1-0.8,0.1s-0.6,0-0.8-0.1c0,0,0,0-0.1,0
		c-0.3-0.1-0.5-0.1-0.8-0.2l0,0c-0.3-0.1-0.5-0.2-0.7-0.4l0,0c-0.2-0.2-0.4-0.3-0.6-0.5l0,0c-0.1-0.2-0.3-0.3-0.4-0.5
		c-0.1-0.1-0.2-0.2-0.2-0.3c-0.1-0.1-0.1-0.2-0.2-0.3C26,37.3,26,37.1,25.9,37l0,0l0,0c-0.1-0.3-0.2-0.5-0.2-0.8
		c-0.1-0.3-0.1-0.6-0.1-0.9c0-0.3,0-0.6,0.1-0.9c0-0.1,0.1-0.2,0.1-0.3c0-0.2,0.1-0.3,0.1-0.5c0.1-0.1,0.1-0.3,0.2-0.4
		c0.1-0.1,0.1-0.2,0.2-0.3s0.2-0.2,0.3-0.4c0.1-0.1,0.1-0.2,0.2-0.3s0.2-0.2,0.3-0.3c0.1-0.1,0.2-0.1,0.3-0.2
		c0.1-0.1,0.3-0.2,0.4-0.3c0.1,0,0.2-0.1,0.3-0.1c0.2-0.1,0.3-0.2,0.5-0.2c0.1,0,0.1,0,0.2-0.1c0.2-0.1,0.4-0.1,0.6-0.2
		c0.2,0,0.4-0.1,0.6-0.1c0.1,0,0.1,0,0.2,0c0.2,0,0.3,0,0.5,0s0.4,0.1,0.6,0.2c0.1,0,0.1,0,0.2,0.1c0.2,0.1,0.3,0.1,0.5,0.2
		c0.1,0,0.2,0.1,0.3,0.1c0.1,0.1,0.3,0.2,0.4,0.3c0.1,0.1,0.2,0.1,0.3,0.2s0.2,0.2,0.3,0.3c0.1,0.1,0.2,0.2,0.2,0.3
		c0.1,0.1,0.2,0.2,0.3,0.4c0.1,0.1,0.1,0.2,0.2,0.3c0.1,0.1,0.1,0.3,0.2,0.4c0.1,0.1,0.1,0.3,0.1,0.5c0,0.1,0.1,0.2,0.1,0.3
		c0.1,0.3,0.1,0.6,0.1,0.9c0,0.3,0,0.6-0.1,0.9c0,0.1-0.1,0.2-0.1,0.3c-0.1,0.5-0.3,0.9-0.6,1.3c0,0,0,0.1-0.1,0.1
		C33.4,38.3,33,38.7,32.5,39.1L32.5,39.1z M30,1.8c1.4,0,3.3,4.3,3.3,13.8c0,3.9-0.6,7.7-1.6,11c0,0.1-0.1,0.2-0.1,0.2
		c-0.1,0.4-0.3,0.8-0.4,1.2c-0.1,0.1-0.1,0.3-0.2,0.4c-0.1,0.3-0.3,0.7-0.4,1c0,0.1-0.1,0.2-0.1,0.3c-0.1,0-0.2,0-0.4,0
		c-0.1,0-0.2,0-0.4,0c0-0.1-0.1-0.2-0.1-0.3c-0.2-0.4-0.3-0.8-0.5-1.2c0-0.1-0.1-0.1-0.1-0.2c-1.4-3.7-2.2-8.1-2.2-12.6
		C26.8,6.1,28.7,1.8,30,1.8z M20.4,37.5c-0.2-0.7-0.2-1.4-0.2-2.1c0-4.4,2.8-8.2,6.9-9.5c0.1,0.2,0.2,0.5,0.2,0.7
		c0.1,0.3,0.2,0.6,0.3,0.9c0.1,0.3,0.2,0.7,0.4,1c0.1,0.3,0.3,0.7,0.4,1c0.1,0.2,0.1,0.3,0.2,0.5c-1.2,0.3-2.2,1-2.9,2l0,0
		c-0.3,0.5-0.6,1-0.8,1.5c0,0,0,0,0,0.1c-0.1,0.3-0.2,0.5-0.2,0.8v0.1c0,0.3-0.1,0.6-0.1,0.8s0,0.4,0,0.7v0.1c0,0.2,0.1,0.4,0.1,0.6
		l0,0c-0.2,0-0.3,0-0.5,0.1c-0.4,0-0.7,0.1-1.1,0.1c-0.3,0.1-0.7,0.1-1,0.2c-0.3,0.1-0.6,0.1-0.9,0.2C20.9,37.4,20.7,37.4,20.4,37.5
		z M14.7,48.1C10,50.9,6.8,51.9,5,52.4c-2.4,0.6-3.5,0.2-3.8-0.2c-0.7-1.2,2-5,10.2-9.7c3.9-2.2,8-3.8,11.8-4.4c0.1,0,0.2,0,0.3,0
		c0.4-0.1,0.8-0.1,1.2-0.1c0.1,0,0.2,0,0.3,0c0.1,0.2,0.2,0.4,0.4,0.6c-0.1,0.1-0.2,0.3-0.3,0.4c-0.1,0.2-0.3,0.4-0.4,0.5
		c-0.2,0.3-0.4,0.5-0.6,0.8c-0.1,0.1-0.2,0.2-0.3,0.3c-0.2,0.3-0.5,0.5-0.7,0.8C20.9,43.9,18,46.2,14.7,48.1z M30,45.3
		c-2.5,0-4.8-0.9-6.7-2.6c0.3-0.3,0.6-0.6,0.8-0.9c0.2-0.2,0.3-0.4,0.5-0.6c0.2-0.2,0.3-0.4,0.5-0.6c0.2-0.3,0.4-0.5,0.6-0.8
		c0.1-0.2,0.3-0.3,0.4-0.5c0.9,0.9,2,1.4,3.3,1.5l0,0c0.2,0,0.4,0,0.6,0s0.4,0,0.6,0h0.1c0.1,0,0.3,0,0.4-0.1h0.1
		c0.1,0,0.3-0.1,0.4-0.1h0.1c0.1,0,0.3-0.1,0.4-0.2l0,0c0.2-0.1,0.3-0.1,0.4-0.2l0,0c0.4-0.2,0.9-0.5,1.2-0.9
		c0.2,0.3,0.4,0.5,0.6,0.8l0.1,0.1c0.3,0.4,0.6,0.7,0.9,1.1c0.1,0.1,0.2,0.3,0.4,0.4c0.3,0.3,0.6,0.6,0.9,0.9
		C34.9,44.4,32.5,45.3,30,45.3z M58.8,52.1c-0.3,0.5-1.4,0.8-3.8,0.2c-1.8-0.4-4.9-1.5-9.6-4.3c-2.8-1.7-5.4-3.6-7.5-5.7l0,0
		c-0.2-0.2-0.4-0.4-0.6-0.7c-0.1-0.1-0.3-0.3-0.4-0.4c-0.2-0.2-0.3-0.4-0.5-0.6c-0.2-0.2-0.4-0.4-0.5-0.6c-0.1-0.2-0.3-0.3-0.4-0.5
		c-0.2-0.3-0.4-0.5-0.6-0.8c-0.1-0.1-0.1-0.2-0.2-0.3c0.1-0.1,0.1-0.2,0.2-0.3L35,38c0-0.1,0.1-0.1,0.1-0.2c0.1,0,0.2,0,0.3,0
		c0.4,0,0.7,0.1,1.1,0.1c0.1,0,0.3,0,0.4,0.1c0.4,0.1,0.8,0.1,1.3,0.2c0.1,0,0.2,0,0.3,0.1c3.4,0.7,6.9,2.1,10.2,4.1
		C56.8,47.2,59.5,51,58.8,52.1z"/>
	<path class="st0" d="M30,32.1c-0.3,0-0.6,0.2-0.6,0.6c0,0.3,0.2,0.6,0.6,0.6c1.2,0,2.1,1,2.1,2.2c0,0.3,0.2,0.6,0.6,0.6
		c0.3,0,0.6-0.2,0.6-0.6C33.3,33.5,31.8,32.1,30,32.1z"/>
</g>
</svg>
