<?xml version="1.0" encoding="utf-8"?>
<!-- Generator: Adobe Illustrator 21.0.0, SVG Export Plug-In . SVG Version: 6.00 Build 0)  -->
<svg version="1.1" id="圖層_1" xmlns="http://www.w3.org/2000/svg" xmlns:xlink="http://www.w3.org/1999/xlink" x="0px" y="0px"
	 viewBox="0 0 676.9 499" style="enable-background:new 0 0 676.9 499;" xml:space="preserve">
<style type="text/css">
	.st0{fill:#FFFFFF;}
</style>
<g>
	<rect x="372.9" y="149" class="st0" width="1" height="350"/>
	<rect x="675.9" class="st0" width="1" height="350"/>
	<path class="st0" d="M421.1,170h8.7c4.2,0,7.4-1,9.6-2.9c2.2-1.9,3.4-4.7,3.4-8.3c0-3.4-1.1-6.1-3.4-8.2c-2.3-2.1-5.5-3.1-9.5-3.1
		h-13.6v37h4.9V170z M421.1,151.5h9c2.4,0.1,4.3,0.7,5.7,2.1c1.4,1.3,2.1,3.1,2.1,5.3c0,2.3-0.7,4.1-2.1,5.3c-1.4,1.2-3.4,1.8-6,1.8
		h-8.8V151.5z"/>
	<path class="st0" d="M453,165c1.1-2.6,3.2-3.9,6.3-3.9c0.8,0,1.6,0.1,2.3,0.2v-4.4c-0.5-0.2-1.2-0.4-2.1-0.4c-2.8,0-5,1.2-6.6,3.7
		l-0.1-3.2h-4.6v27.5h4.7V165z"/>
	<path class="st0" d="M476.8,185c4.6,0,8.1-1.8,10.4-5.3l-2.9-2.2c-0.9,1.1-1.9,2-3,2.7c-1.2,0.7-2.6,1-4.2,1
		c-2.3,0-4.3-0.8-5.8-2.5c-1.5-1.7-2.3-3.9-2.4-6.6h18.6v-2c0-4.4-1-7.8-3-10.1c-2-2.4-4.8-3.5-8.3-3.5c-2.2,0-4.2,0.6-6.1,1.8
		c-1.9,1.2-3.3,2.9-4.4,5c-1,2.1-1.6,4.6-1.6,7.3v0.9c0,4.1,1.2,7.4,3.5,9.8C470.1,183.8,473.1,185,476.8,185z M471.5,162.4
		c1.3-1.4,2.9-2.1,4.8-2.1c2,0,3.5,0.7,4.7,2c1.2,1.3,1.8,3.2,1.9,5.5v0.4h-13.8C469.4,165.7,470.2,163.8,471.5,162.4z"/>
	<path class="st0" d="M504,185c1.9,0,3.6-0.4,5.3-1.3c1.7-0.8,3-2,4-3.4c1-1.4,1.5-2.9,1.6-4.5h-4.4c-0.1,1.5-0.8,2.8-2.1,3.8
		c-1.3,1-2.7,1.5-4.4,1.5c-2.4,0-4.3-0.9-5.6-2.6c-1.3-1.7-2-4.1-2-7.3v-0.9c0-3.3,0.7-5.7,2-7.5c1.3-1.7,3.2-2.6,5.5-2.6
		c1.8,0,3.3,0.6,4.5,1.7c1.2,1.1,1.9,2.6,2,4.4h4.4c-0.1-2.9-1.2-5.3-3.3-7.2c-2-1.8-4.6-2.8-7.7-2.8c-2.5,0-4.7,0.6-6.5,1.7
		c-1.8,1.2-3.2,2.8-4.2,4.8c-1,2.1-1.5,4.5-1.5,7.1v0.8c0,4.3,1.1,7.7,3.3,10.2C497.3,183.7,500.2,185,504,185z"/>
	<path class="st0" d="M523,152.4c0.9,0,1.6-0.3,2.1-0.8c0.5-0.5,0.7-1.1,0.7-1.9s-0.2-1.4-0.7-1.9c-0.5-0.5-1.2-0.8-2.1-0.8
		s-1.6,0.3-2.1,0.8c-0.5,0.5-0.7,1.2-0.7,1.9s0.2,1.4,0.7,1.9C521.4,152.1,522.1,152.4,523,152.4z"/>
	<rect x="520.6" y="157" class="st0" width="4.7" height="27.5"/>
	<path class="st0" d="M547.2,180.1c-1.1,0.7-2.5,1.1-4.3,1.1c-1.9,0-3.5-0.5-4.7-1.4c-1.2-0.9-1.8-2.2-1.9-3.7h-4.7
		c0,1.6,0.5,3.1,1.4,4.5c1,1.4,2.3,2.5,4,3.3c1.7,0.8,3.6,1.2,5.8,1.2c3.1,0,5.7-0.7,7.6-2.2c2-1.5,2.9-3.4,2.9-5.9
		c0-1.5-0.4-2.7-1.1-3.7c-0.7-1-1.8-1.9-3.2-2.6c-1.5-0.7-3.4-1.4-5.7-1.9c-2.3-0.5-4-1.1-4.9-1.7c-0.9-0.6-1.3-1.4-1.3-2.6
		c0-1.2,0.5-2.2,1.4-2.9c1-0.7,2.3-1.1,4-1.1c1.7,0,3,0.5,4.1,1.4c1.1,0.9,1.6,2,1.6,3.3h4.7c0-2.5-1-4.6-2.9-6.2
		c-1.9-1.6-4.5-2.4-7.6-2.4c-3,0-5.4,0.8-7.3,2.3c-1.9,1.6-2.9,3.5-2.9,5.7c0,1.4,0.3,2.5,1,3.5c0.7,1,1.7,1.8,3.1,2.5
		s3.3,1.3,5.7,1.8c2.4,0.5,4,1.1,5,1.8c1,0.7,1.4,1.7,1.4,3C548.8,178.4,548.3,179.4,547.2,180.1z"/>
	<path class="st0" d="M562.4,152.4c0.9,0,1.6-0.3,2.1-0.8c0.5-0.5,0.7-1.1,0.7-1.9s-0.2-1.4-0.7-1.9c-0.5-0.5-1.2-0.8-2.1-0.8
		s-1.6,0.3-2.1,0.8c-0.5,0.5-0.7,1.2-0.7,1.9s0.2,1.4,0.7,1.9C560.8,152.1,561.5,152.4,562.4,152.4z"/>
	<rect x="560" y="157" class="st0" width="4.7" height="27.5"/>
	<path class="st0" d="M594.5,178.3c1-2.1,1.5-4.5,1.5-7.2v-0.3c0-4.3-1.2-7.7-3.5-10.3s-5.3-3.9-9.1-3.9c-2.4,0-4.6,0.6-6.5,1.8
		c-1.9,1.2-3.4,2.8-4.4,5c-1.1,2.1-1.6,4.6-1.6,7.3v0.3c0,4.3,1.2,7.7,3.5,10.3s5.3,3.9,9.1,3.9c2.5,0,4.7-0.6,6.6-1.8
		C592,182,593.4,180.4,594.5,178.3z M583.5,181.2c-2.4,0-4.3-0.9-5.7-2.8c-1.4-1.8-2.1-4.3-2.1-7.3c0-3.4,0.7-6.1,2.1-7.9
		c1.4-1.8,3.3-2.8,5.6-2.8c2.4,0,4.3,0.9,5.7,2.8c1.4,1.9,2.1,4.3,2.1,7.3c0,3.4-0.7,6-2.1,7.9C587.8,180.2,585.9,181.2,583.5,181.2
		z"/>
	<path class="st0" d="M618.8,166.3v18.2h4.7v-18.2c-0.1-6.6-3-9.8-8.8-9.8c-3.4,0-6.1,1.3-8.2,4l-0.2-3.5h-4.4v27.5h4.7v-19.6
		c0.6-1.3,1.5-2.4,2.7-3.2c1.2-0.8,2.5-1.2,4-1.2c1.9,0,3.3,0.5,4.2,1.4C618.3,162.9,618.8,164.3,618.8,166.3z"/>
	<path class="st0" d="M438,244.9c2-1.5,3.6-3.5,4.8-6.1c1.1-2.6,1.7-5.7,1.7-9.2v-2.4c0-3.6-0.6-6.8-1.8-9.5c-1.2-2.7-3-4.8-5.2-6.2
		c-2.3-1.4-4.9-2.2-7.9-2.2c-2.9,0-5.5,0.7-7.8,2.2s-4,3.5-5.2,6.3c-1.2,2.7-1.9,5.9-1.9,9.4v2.7c0,3.5,0.7,6.6,1.9,9.2
		c1.2,2.6,3,4.7,5.2,6.1c2.3,1.4,4.8,2.1,7.7,2.1c1.4,0,2.6-0.2,3.9-0.5l7.8,6.2l3.3-3.1L438,244.9z M429.6,243.3
		c-3.1,0-5.6-1.2-7.4-3.7c-1.8-2.4-2.7-5.8-2.7-10v-2.7c0.1-4.2,1-7.4,2.7-9.8c1.8-2.3,4.2-3.5,7.2-3.5c3.2,0,5.7,1.2,7.4,3.5
		c1.7,2.4,2.6,5.7,2.6,10.1v2.7c-0.1,4.3-0.9,7.6-2.7,9.9C435.2,242.1,432.8,243.3,429.6,243.3z"/>
	<path class="st0" d="M468.2,244.2l0.1,2.7h4.5v-27.5h-4.7v20c-1.2,2.7-3.6,4-7.2,4c-3.4,0-5.1-2.1-5.1-6.2v-17.7h-4.7v17.9
		c0,3.3,0.8,5.9,2.3,7.6c1.5,1.7,3.8,2.6,6.7,2.6C463.7,247.4,466.4,246.3,468.2,244.2z"/>
	<path class="st0" d="M496.9,246.9h4.9v-0.4c-0.6-1.5-1-3.5-1-6v-12.6c-0.1-2.8-1-5-2.8-6.5c-1.8-1.6-4.3-2.4-7.4-2.4
		c-2,0-3.8,0.4-5.5,1.1c-1.7,0.7-3,1.8-4,3c-1,1.3-1.5,2.6-1.5,4h4.7c0-1.2,0.6-2.2,1.7-3.1c1.1-0.8,2.5-1.3,4.2-1.3
		c1.9,0,3.4,0.5,4.3,1.5c1,1,1.5,2.3,1.5,3.9v2.2h-4.6c-3.9,0-7,0.8-9.2,2.4c-2.2,1.6-3.3,3.8-3.3,6.7c0,2.4,0.9,4.3,2.6,5.8
		c1.7,1.5,4,2.3,6.7,2.3c3,0,5.6-1.1,7.8-3.4C496.4,245.4,496.6,246.3,496.9,246.9z M496.1,239.2c-0.6,1.2-1.5,2.2-2.9,3
		s-2.7,1.1-4.2,1.1c-1.5,0-2.8-0.4-3.8-1.2c-1-0.8-1.5-2-1.5-3.5c0-3.4,2.9-5.1,8.6-5.1h3.7V239.2z"/>
	<rect x="508.6" y="207.9" class="st0" width="4.7" height="39"/>
	<rect x="521.2" y="219.4" class="st0" width="4.7" height="27.5"/>
	<path class="st0" d="M523.6,209.4c-0.9,0-1.6,0.3-2.1,0.8c-0.5,0.5-0.7,1.2-0.7,1.9s0.2,1.4,0.7,1.9c0.5,0.5,1.2,0.8,2.1,0.8
		s1.6-0.3,2.1-0.8c0.5-0.5,0.7-1.1,0.7-1.9s-0.2-1.4-0.7-1.9C525.2,209.7,524.5,209.4,523.6,209.4z"/>
	<path class="st0" d="M535.1,240.1c0,2.3,0.5,4.1,1.6,5.4s2.6,1.9,4.7,1.9c1.2,0,2.4-0.2,3.6-0.5v-3.8c-0.9,0.2-1.7,0.3-2.2,0.3
		c-1.1,0-1.9-0.3-2.3-0.8c-0.5-0.6-0.7-1.4-0.7-2.5V223h5.1v-3.6h-5.1v-6.7h-4.7v6.7h-5v3.6h5V240.1z"/>
	<path class="st0" d="M565.8,219.4l-6.4,20.6l-6.9-20.6h-5.1l9.8,27.2l-1,2.8c-0.6,1.7-1.3,2.9-2.2,3.5s-2.1,1-3.7,1l-1.3-0.1v3.8
		l1.8,0.3l0.9,0.1c3.7,0,6.4-2.3,8.2-6.9l11-31.7H565.8z"/>
	<polygon class="st0" points="421.1,292.2 437.1,292.2 437.1,288.2 421.1,288.2 421.1,276.3 439.5,276.3 439.5,272.3 416.2,272.3 
		416.2,309.3 439.7,309.3 439.7,305.3 421.1,305.3 	"/>
	<path class="st0" d="M449.3,272.2c-1.6,1.6-2.4,3.9-2.4,6.8v2.8h-4.3v3.6h4.3v23.8h4.7v-23.8h5.9v-3.6h-5.9v-2.9
		c0-1.7,0.4-2.9,1.2-3.8c0.8-0.9,2-1.3,3.5-1.3c0.9,0,1.7,0.1,2.5,0.2l0.3-3.8c-1.1-0.3-2.1-0.4-3.2-0.4
		C453.1,269.8,450.8,270.6,449.3,272.2z"/>
	<path class="st0" d="M467.3,272.2c-1.6,1.6-2.4,3.9-2.4,6.8v2.8h-4.3v3.6h4.3v23.8h4.7v-23.8h5.9v-3.6h-5.9v-2.9
		c0-1.7,0.4-2.9,1.2-3.8c0.8-0.9,2-1.3,3.5-1.3c0.9,0,1.7,0.1,2.5,0.2l0.3-3.8c-1.1-0.3-2.1-0.4-3.2-0.4
		C471.1,269.8,468.9,270.6,467.3,272.2z"/>
	<path class="st0" d="M483.5,271.8c-0.9,0-1.6,0.3-2.1,0.8c-0.5,0.5-0.7,1.2-0.7,1.9s0.2,1.4,0.7,1.9c0.5,0.5,1.2,0.8,2.1,0.8
		s1.6-0.3,2.1-0.8c0.5-0.5,0.7-1.1,0.7-1.9s-0.2-1.4-0.7-1.9C485.1,272.1,484.4,271.8,483.5,271.8z"/>
	<rect x="481.1" y="281.8" class="st0" width="4.7" height="27.5"/>
	<path class="st0" d="M498.8,287.7c1.3-1.7,3.2-2.6,5.5-2.6c1.8,0,3.3,0.6,4.5,1.7c1.2,1.1,1.9,2.6,2,4.4h4.4
		c-0.1-2.9-1.2-5.3-3.3-7.2c-2-1.8-4.6-2.8-7.7-2.8c-2.5,0-4.7,0.6-6.5,1.7c-1.8,1.2-3.2,2.8-4.2,4.8c-1,2.1-1.5,4.5-1.5,7.1v0.8
		c0,4.3,1.1,7.7,3.3,10.2c2.2,2.5,5.2,3.7,8.9,3.7c1.9,0,3.6-0.4,5.3-1.3c1.7-0.8,3-2,4-3.4c1-1.4,1.5-2.9,1.6-4.5h-4.4
		c-0.1,1.5-0.8,2.8-2.1,3.8c-1.3,1-2.7,1.5-4.4,1.5c-2.4,0-4.3-0.9-5.6-2.6c-1.3-1.7-2-4.1-2-7.3v-0.9
		C496.8,291.9,497.5,289.5,498.8,287.7z"/>
	<path class="st0" d="M523.3,271.8c-0.9,0-1.6,0.3-2.1,0.8c-0.5,0.5-0.7,1.2-0.7,1.9s0.2,1.4,0.7,1.9c0.5,0.5,1.2,0.8,2.1,0.8
		s1.6-0.3,2.1-0.8c0.5-0.5,0.7-1.1,0.7-1.9s-0.2-1.4-0.7-1.9C524.9,272.1,524.2,271.8,523.3,271.8z"/>
	<rect x="520.9" y="281.8" class="st0" width="4.7" height="27.5"/>
	<path class="st0" d="M544,281.3c-2.2,0-4.2,0.6-6.1,1.8c-1.9,1.2-3.3,2.9-4.4,5c-1,2.1-1.6,4.6-1.6,7.3v0.9c0,4.1,1.2,7.4,3.5,9.8
		c2.3,2.4,5.4,3.7,9.1,3.7c4.6,0,8.1-1.8,10.4-5.3l-2.9-2.2c-0.9,1.1-1.9,2-3,2.7c-1.2,0.7-2.6,1-4.2,1c-2.3,0-4.3-0.8-5.8-2.5
		c-1.5-1.7-2.3-3.9-2.4-6.6h18.6v-2c0-4.4-1-7.8-3-10.1C550.3,282.5,547.5,281.3,544,281.3z M550.6,293h-13.8
		c0.3-2.5,1.1-4.4,2.4-5.8c1.3-1.4,2.9-2.1,4.8-2.1c2,0,3.5,0.7,4.7,2c1.2,1.3,1.8,3.2,1.9,5.5V293z"/>
	<path class="st0" d="M573.5,281.3c-3.4,0-6.1,1.3-8.2,4l-0.2-3.5h-4.4v27.5h4.7v-19.6c0.6-1.3,1.5-2.4,2.7-3.2
		c1.2-0.8,2.5-1.2,4-1.2c1.9,0,3.3,0.5,4.2,1.4c0.9,0.9,1.3,2.4,1.4,4.4v18.2h4.7v-18.2C582.3,284.6,579.3,281.3,573.5,281.3z"/>
	<path class="st0" d="M594.8,287.7c1.3-1.7,3.2-2.6,5.5-2.6c1.8,0,3.3,0.6,4.5,1.7c1.2,1.1,1.9,2.6,2,4.4h4.4
		c-0.1-2.9-1.2-5.3-3.3-7.2c-2-1.8-4.6-2.8-7.7-2.8c-2.5,0-4.7,0.6-6.5,1.7c-1.8,1.2-3.2,2.8-4.2,4.8c-1,2.1-1.5,4.5-1.5,7.1v0.8
		c0,4.3,1.1,7.7,3.3,10.2c2.2,2.5,5.2,3.7,8.9,3.7c1.9,0,3.6-0.4,5.3-1.3c1.7-0.8,3-2,4-3.4c1-1.4,1.5-2.9,1.6-4.5h-4.4
		c-0.1,1.5-0.8,2.8-2.1,3.8c-1.3,1-2.7,1.5-4.4,1.5c-2.4,0-4.3-0.9-5.6-2.6c-1.3-1.7-2-4.1-2-7.3v-0.9
		C592.9,291.9,593.5,289.5,594.8,287.7z"/>
	<path class="st0" d="M625.6,302.4l-6.9-20.6h-5.1l9.8,27.2l-1,2.8c-0.6,1.7-1.3,2.9-2.2,3.5c-0.9,0.6-2.1,1-3.7,1l-1.3-0.1v3.8
		l1.8,0.3l0.9,0.1c3.7,0,6.4-2.3,8.2-6.9l11-31.7h-5L625.6,302.4z"/>
	<polygon class="st0" points="63.6,191 25.7,191 25.7,148.7 0,148.7 0,255.3 25.7,255.3 25.7,210.8 63.6,210.8 63.6,255.3 
		89.1,255.3 89.1,148.7 63.6,148.7 	"/>
	<rect x="107.2" y="148.7" class="st0" width="25.6" height="106.6"/>
	<path class="st0" d="M194.4,216h17.9v16.6c-3.3,3-8.3,4.5-14.9,4.5c-7.8,0-13.5-2.7-17.2-8c-3.6-5.3-5.5-13.3-5.5-24v-6.4
		c0-10.2,1.8-18,5.3-23.4c3.5-5.5,8.5-8.2,14.9-8.2c5.4,0,9.5,1.3,12.5,3.8c2.9,2.5,4.8,6.8,5.7,12.7h24.8
		c-1.2-12.1-5.5-21.1-12.9-27.2c-7.3-6.1-17.7-9.1-30.9-9.1c-9.1,0-17.1,2.1-24,6.3c-6.9,4.2-12.2,10.3-15.9,18.1
		c-3.7,7.8-5.6,17-5.6,27.5l0.1,9.2c0.6,15.2,5.1,27.1,13.4,35.7c8.3,8.5,19.5,12.8,33.5,12.8c9.1,0,17.4-1.3,25-4
		s13.4-6.2,17.4-10.6v-43.8h-43.6V216z"/>
	<polygon class="st0" points="316.5,191 278.6,191 278.6,148.7 252.9,148.7 252.9,255.3 278.6,255.3 278.6,210.8 316.5,210.8 
		316.5,255.3 342,255.3 342,148.7 316.5,148.7 	"/>
</g>
</svg>
