<?xml version="1.0" encoding="utf-8"?>
<!-- Generator: Adobe Illustrator 23.0.2, SVG Export Plug-In . SVG Version: 6.00 Build 0)  -->
<svg version="1.1" baseProfile="basic" id="圖層_1"
	 xmlns="http://www.w3.org/2000/svg" xmlns:xlink="http://www.w3.org/1999/xlink" x="0px" y="0px" width="21px" height="15px"
	 viewBox="0 0 21 15" xml:space="preserve">
<path d="M21,5.2c0-0.3,0-0.5,0-0.8c-0.1-1.1-0.2-2.3-0.9-3.1c-0.6-0.7-1.5-0.9-2.4-1c-1.1-0.1-2.2-0.2-3.3-0.2c-2.3-0.1-4.5,0-6.8,0
	c-1.2,0-2.3,0.1-3.5,0.1C2.7,0.3,1.2,0.5,0.5,2C-0.1,3.2,0,4.9,0,6.3C0,7.5,0,8.7,0,10c0.1,1.6,0.2,3.7,1.9,4.4c0.9,0.4,2,0.5,3,0.5
	C6,15,7,15,8.1,15c2.2,0,4.4,0,6.6-0.1c1.5,0,3.1-0.1,4.5-0.6c1.3-0.4,1.6-1.8,1.8-3C21,10.2,21,9,21,7.8C21,6.9,21,6,21,5.2z
	 M14,7.8L8.5,11V4.5L14,7.8z"/>
<g>
</g>
<g>
</g>
<g>
</g>
<g>
</g>
<g>
</g>
<g>
</g>
<g>
</g>
<g>
</g>
<g>
</g>
<g>
</g>
<g>
</g>
<g>
</g>
<g>
</g>
<g>
</g>
<g>
</g>
</svg>
