<?xml version="1.0" encoding="utf-8"?>
<!-- Generator: Adobe Illustrator 21.0.0, SVG Export Plug-In . SVG Version: 6.00 Build 0)  -->
<svg version="1.1" id="圖層_1" xmlns="http://www.w3.org/2000/svg" xmlns:xlink="http://www.w3.org/1999/xlink" x="0px" y="0px"
	 viewBox="0 0 45.8 46" style="enable-background:new 0 0 45.8 46;" xml:space="preserve">
<path d="M45.8,25c-1,11.8-10.9,21-22.9,21S1,36.8,0,25h1c1,11.2,10.4,20,21.9,20s20.9-8.8,21.9-20H45.8z M0,21C1,9.2,10.9,0,22.9,0
	s21.9,9.2,22.9,21h-1C43.8,9.8,34.4,1,22.9,1S2,9.8,1,21H0z"/>
<path d="M12.3,22.1l9.4-8.9c0.2-0.1,0.4-0.1,0.5,0s0.1,0.4,0,0.5L13.4,22h20.5v1H13.4l8.8,8.4c0.1,0.1,0.1,0.4,0,0.5S22,32,21.9,32
	s-0.2,0-0.3-0.1L12.3,23c0,0-0.2-0.2-0.2-0.4S12.3,22.1,12.3,22.1z"/>
</svg>
