<?xml version="1.0" encoding="utf-8"?>
<!-- Generator: Adobe Illustrator 21.0.0, SVG Export Plug-In . SVG Version: 6.00 Build 0)  -->
<svg version="1.1" id="圖層_1" xmlns="http://www.w3.org/2000/svg" xmlns:xlink="http://www.w3.org/1999/xlink" x="0px" y="0px"
	 viewBox="0 0 22 15" style="enable-background:new 0 0 22 15;" xml:space="preserve">
<path class="st0" d="M22,9.5c0-1.6-1.2-3-3-3.8c0.2,0.5,0.2,0.9,0.2,1.4c0,3-2.9,5.5-6.9,6.2c1,0.4,2.1,0.6,3.3,0.6
	c0.9,0,1.8-0.1,2.6-0.4l3.3,1.4l-1.2-2.5C21.4,11.7,22,10.6,22,9.5z M12.8,7.2c-0.5,0-0.9-0.4-0.9-0.8c0-0.5,0.4-0.8,0.9-0.8
	c0.5,0,0.9,0.4,0.9,0.8C13.7,6.8,13.3,7.2,12.8,7.2z M9.1,7.2c-0.5,0-0.9-0.4-0.9-0.8c0-0.5,0.4-0.8,0.9-0.8c0.5,0,0.9,0.4,0.9,0.8
	C10,6.8,9.6,7.2,9.1,7.2z M5.4,7.2c-0.5,0-0.9-0.4-0.9-0.8c0-0.5,0.4-0.8,0.9-0.8c0.5,0,0.9,0.4,0.9,0.8C6.3,6.8,5.9,7.2,5.4,7.2z
	 M9.1,0C4.1,0,0,2.9,0,6.4c0,1.7,0.9,3.2,2.4,4.3l-1.7,3.6l4.7-2c1.1,0.4,2.4,0.6,3.7,0.6c5,0,9.1-2.9,9.1-6.4S14.1,0,9.1,0z"/>
</svg>
