<?xml version="1.0" encoding="utf-8"?>
<!-- Generator: Adobe Illustrator 21.0.0, SVG Export Plug-In . SVG Version: 6.00 Build 0)  -->
<svg version="1.1" id="圖層_1" xmlns="http://www.w3.org/2000/svg" xmlns:xlink="http://www.w3.org/1999/xlink" x="0px" y="0px"
	 viewBox="0 0 14.1 13.5" style="enable-background:new 0 0 14.1 13.5;" xml:space="preserve">
<path d="M0.1,13.5V4.1h3v9.4H0.1z M3.2,1.5c0,0.8-0.6,1.5-1.6,1.5C0.6,2.9,0,2.3,0,1.5C0,0.6,0.6,0,1.6,0C2.6,0,3.2,0.6,3.2,1.5z
	 M4.9,7.1c0-1.2,0-2.2-0.1-3h2.6l0.1,1.3h0.1c0.4-0.6,1.4-1.5,3-1.5c2,0,3.5,1.3,3.5,4.1v5.6h-3V8.3c0-1.2-0.4-2-1.5-2
	C8.8,6.2,8.3,6.8,8,7.3C8,7.5,7.9,7.8,7.9,8.1v5.4h-3V7.1z"/>
</svg>
