<?xml version="1.0" encoding="utf-8"?>
<!-- Generator: Adobe Illustrator 21.0.0, SVG Export Plug-In . SVG Version: 6.00 Build 0)  -->
<svg version="1.1" id="圖層_1" xmlns="http://www.w3.org/2000/svg" xmlns:xlink="http://www.w3.org/1999/xlink" x="0px" y="0px"
	 viewBox="0 0 8 10" style="enable-background:new 0 0 8 10;" xml:space="preserve">
<path d="M0.3,6.9C0.2,6.8,0.1,6.6,0.1,6.5C0,6.4,0,6.3,0,6.2C0,6,0,5.9,0.1,5.8c0-0.1,0.1-0.2,0.2-0.3c0.1-0.1,0.2-0.2,0.3-0.2
	c0.1-0.1,0.2-0.1,0.3-0.1c0.1,0,0.3,0,0.4,0.1c0.1,0,0.2,0.1,0.4,0.3L3.1,7V1c0-0.3,0.1-0.6,0.3-0.7C3.5,0.1,3.7,0,4,0
	s0.5,0.1,0.7,0.3C4.9,0.4,4.9,0.7,4.9,1v6l1.5-1.4c0.1-0.1,0.2-0.2,0.3-0.3C6.9,5.3,7,5.3,7.2,5.3c0.1,0,0.2,0,0.3,0.1
	c0.1,0,0.2,0.1,0.3,0.2c0.1,0.1,0.1,0.2,0.2,0.3C8,5.9,8,6,8,6.2c0,0.1,0,0.3-0.1,0.4C7.9,6.6,7.8,6.8,7.7,6.9L4.7,9.6
	C4.6,9.8,4.5,9.8,4.4,9.9C4.3,10,4.2,10,4,10s-0.3,0-0.4-0.1C3.5,9.8,3.4,9.8,3.3,9.6L0.3,6.9z"/>
</svg>
