<?xml version="1.0" encoding="utf-8"?>
<!-- Generator: Adobe Illustrator 21.0.0, SVG Export Plug-In . SVG Version: 6.00 Build 0)  -->
<svg version="1.1" id="圖層_1" xmlns="http://www.w3.org/2000/svg" xmlns:xlink="http://www.w3.org/1999/xlink" x="0px" y="0px"
	 viewBox="0 0 240 36" style="enable-background:new 0 0 240 36;" xml:space="preserve">
<style type="text/css">
	.st0{fill-rule:evenodd;clip-rule:evenodd;fill:#E70016;}
</style>
<path class="st0" d="M53.2,22H37.4l7.9-16.5L53.2,22z M91.9,0.8v0.5l0,20c0,1.4,0.1,2.8,0.2,4.3c0,0.5,0.1,0.9,0.1,1.4
	c-0.2-0.2-0.4-0.4-0.5-0.6c-0.7-0.8-1.4-1.7-2.2-2.5l-22.3-22c-0.8-0.8-1.5-1.2-2.6-1.1c-0.7,0.1-1.4,0-2.1,0v28
	c-0.1-0.1-0.2-0.2-0.3-0.4L48.6,1.3c-0.2-0.4-0.4-0.5-0.8-0.5c-1.6,0-3.2,0-4.9,0c-0.3,0-0.5,0.1-0.6,0.4L25.7,34.8
	c-0.1,0.1-0.1,0.3-0.2,0.4c0.1,0,0.1,0,0.2,0c1.7,0,3.4,0,5.1,0c0.3,0,0.3-0.1,0.4-0.3c1.2-2.5,2.4-5.1,3.6-7.6
	c0.1-0.3,0.3-0.4,0.6-0.4h19.7c0.3,0,0.5,0.1,0.6,0.4c1.2,2.5,2.4,5.1,3.6,7.6c0.1,0.3,0.3,0.4,0.6,0.4c2.4,0,4.9,0,7.3,0
	c0.5,0,0.5,0,0.5-0.6l0-20.2c0-1.3-0.1-2.5-0.1-3.8c0-0.6-0.1-1.3-0.1-2l0.3,0.4c0.5,0.6,1,1.2,1.5,1.8c3,3,6,6,9,9L93.6,35
	c0.2,0.2,0.4,0.3,0.7,0.3c2.5,0,5,0,7.6,0h0.5c0-0.4,0.1-0.7,0-1c-0.5-1.3-1.1-2.5-2.5-3c-0.5-0.2-1-0.4-1.5-0.7
	c-0.6-0.3-1-0.8-1-1.6c0-0.2-0.1-0.5-0.2-0.7c-0.4-0.8-0.9-1.5-1.3-2.3c-0.1-0.2-0.4-0.3-0.6-0.4c-0.2-0.1-0.5-0.6-0.3-0.8
	c0.2-0.2,0.2-0.4,0.1-0.6c-0.2-0.4-0.1-0.7,0-1c0.1-0.2,0-0.4,0-0.6c0-0.3,0-0.5,0.1-0.7c0.1-0.2,0.1-0.3,0-0.5
	c-0.1-0.3-0.3-0.6-0.4-0.9c-0.1-0.6-0.1-1.2-0.1-1.7c0.1-0.8,0.1-1.7,0.8-2.3c0.1-0.1,0.1-0.2,0.1-0.4c0.2-0.6,0.3-1.3,0.6-1.9
	c0.1-0.3,0.4-0.6,0.2-1c0-0.1,0.1-0.3,0.1-0.4c0.2-0.3,0.2-0.5,0.2-0.9c0-0.2,0-0.5,0.1-0.7c0.3-0.7,0.6-1.4,0.9-2.2
	c0.1-0.2,0.1-0.4,0.1-0.6c0.1-0.6,0.4-1,0.8-1.4C98.8,7,98.9,6.9,99,6.8c0.3-0.5,0.6-1.1,0.4-1.7c0-0.1,0-0.2,0.1-0.3
	c0.2-0.5,0.3-1.1,0.5-1.6c0.1-0.2,0.2-0.5,0.3-0.6c0.6-0.5,1.3-0.9,1.9-1.3l0.5-0.4l0-0.1H91.9z M144.5,5.9h0.7l23.3,0
	c0.4,0,0.5-0.1,0.5-0.5c0-1.2,0-2.4,0-3.6V0.8h-30.1c-0.1,0.3-0.2,0.6-0.4,0.9L126,21.6l-0.7,1.1l-0.3-0.4l-6.8-10.1l-7.5-11.1
	c-0.1-0.1-0.3-0.3-0.4-0.4c-0.9,0-1.9,0-2.8,0c-0.1,0.8,0.5,0.4,0.8,0.6c-0.1,0.1-0.2,0.2-0.3,0.3c-0.8,0.5-1.1,1.8-0.8,2.7
	c0.2,0.5,0.5,1,0.8,1.5c0.2,0.3,0.2,0.6,0.1,0.9c-0.2,0.5-0.4,1.1-0.3,1.6c0,0.6,0,1-0.3,1.4c-0.3,0.4-0.3,0.8-0.4,1.2
	c0,0.5-0.2,1,0.1,1.5c0,0,0,0.1,0,0.1c-0.2,0.4-0.2,0.9-0.1,1.4c0,0.1,0,0.2-0.1,0.3c-0.4,1.2-0.4,2.4-0.3,3.6c0,0.5,0,1,0,1.5
	c-0.1,0.7-0.3,1.3-0.3,2c0,0.5,0.2,1.1-0.3,1.5c0,0,0,0.1,0,0.2c-0.2,0.7-0.3,1.4-0.6,2c-0.1,0.3-0.4,0.6-0.2,1c0,0.1,0,0.3-0.1,0.4
	c-0.2,0.3-0.3,0.5-0.5,0.8c-0.3,0.4-0.8,0.6-0.7,1.3c0,0.2-0.2,0.4-0.2,0.6c0,0.3,0,0.6-0.1,1c-0.2,1.1-0.3,2.1,0.1,3.1
	c0.1,0.3,0.1,0.5,0.2,0.8c0,0.4,0,0.8,0.1,1.2l6.5,0c0.2,0,0.3-0.1,0.3-0.3c0-0.6,0-1.2,0-1.7l0-23.2V9.1c0.4,0.7,0.8,1.4,1.2,2
	c4,6,8,11.9,11.9,17.9c0.5,0.7,0.9,1.1,1.8,1c0.3,0,0.5-0.1,0.7-0.4l6.7-10.8c1.9-3.1,3.8-6.2,5.7-9.3c0,0,0.1,0,0.1-0.1v25.9h0.5
	h5.7l23.7,0c0.4,0,0.5-0.1,0.5-0.6c0-1.4,0-2.8,0-4.1c0-0.6,0-0.6-0.5-0.6h-23.7h-0.5V19.8h14.9v-5h-14.9V5.9z M210.6,19.9h23.8
	v15.3h5.6V0.8h-5.6v13.8h-23.8V0.8h-5.6v34.4h5.6V19.9z M201.6,9.8l-0.2-0.3c-1.7-3-3.4-6-5-9C196.2,0.1,196,0,195.6,0h-17.9
	c-0.4,0-0.6,0.1-0.8,0.5l-9,17.2c-0.1,0.3-0.1,0.4,0,0.7l9.1,17.4c0.1,0.2,0.2,0.3,0.5,0.3h18.2c0.2,0,0.4-0.1,0.5-0.3l5-8.9
	c0.1-0.1,0.1-0.2,0.2-0.3l-3.5-2.6c-0.1,0.1-0.1,0.3-0.2,0.4c-0.6,1.3-1.5,2.5-2.5,3.5c-3.9,3.6-8.3,4.7-13.1,2.7
	c-5.1-2.1-8.1-7.8-7.6-13.8c0.3-3.3,1.5-6.1,3.7-8.3c3-3.1,6.6-4.3,10.6-3.5c3.8,0.8,6.8,2.9,8.8,6.6c0.1,0.2,0.3,0.5,0.4,0.8
	L201.6,9.8z M21.5,35.3v-0.6c0-4.6,0-9.2,0-13.8c0-0.5,0.2-0.9,0.5-1.3l13.8-17l1.5-1.9h-0.5c-1.9,0-3.9,0-5.9,0
	c-0.4,0-0.7,0.1-0.9,0.5L19.2,15.4l-0.3,0.4l-0.6-0.7L7.3,1.1C7.1,0.9,6.9,0.8,6.6,0.8c-2.1,0-4.2,0-6.3,0c-0.1,0-0.2,0-0.4,0
	C0.1,0.9,0.2,1,0.2,1.1L15.6,20c0.2,0.3,0.3,0.5,0.3,0.9l0,14c0,0.4,0.1,0.5,0.4,0.5c1,0,2.1,0,3.1,0H21.5z"/>
</svg>
