<?xml version="1.0" encoding="utf-8"?>
<!-- Generator: Adobe Illustrator 21.0.0, SVG Export Plug-In . SVG Version: 6.00 Build 0)  -->
<svg version="1.1" id="圖層_1" xmlns="http://www.w3.org/2000/svg" xmlns:xlink="http://www.w3.org/1999/xlink" x="0px" y="0px"
	 viewBox="0 0 100 101" style="enable-background:new 0 0 100 101;" xml:space="preserve">
<style type="text/css">
	.st0{fill:#FFFFFF;}
	.st1{fill:#F38000;}
	.st2{fill-rule:evenodd;clip-rule:evenodd;fill:#FFFFFF;}
</style>
<path class="st0" d="M80.1,44c-0.9,0.4-1.9,0.6-2.8,0.6c-1.2,0-2-0.3-2.5-0.6l-0.3-0.1c0.6,2.1,0.9,4.3,0.9,6.6
	C75.4,64.7,64,76.1,50,76.1S24.6,64.7,24.6,50.5S36,24.9,50,24.9c7.5,0,14.2,3.3,18.8,8.4l0.1-0.5c0.1-0.9,0.6-2.8,2.9-4.4
	c0.6-0.4,1.7-1,2.9-1.7c-6.2-6.6-15-10.7-24.8-10.7c-18.9,0-34.2,15.5-34.2,34.6S31.1,85.1,50,85.1s34.2-15.5,34.2-34.6
	c0-2.8-0.3-5.5-1-8C82,43.1,80.8,43.7,80.1,44z"/>
<path class="st0" d="M59.1,50.9c-0.2,4.9-4.2,8.8-9.1,8.8c-5.1,0-9.2-4.1-9.2-9.3s4.1-9.3,9.2-9.3c1.9,0,3.6,0.6,5.1,1.5l7.2-3.8
	c-3.1-3.3-7.4-5.4-12.2-5.4c-9.3,0-16.8,7.6-16.8,16.9S40.8,67.4,50,67.4s16.8-7.6,16.8-16.9c0-1.2-0.1-2.3-0.4-3.5L59.1,50.9z"/>
<path class="st1" d="M83.2,32.3c0.2-0.8,0.8-2.9,1.5-5.1c0.9-2.9-1.2-2.3-1.2-2.3s-8.3,4.2-10.3,5.5c-2,1.4-1.9,2.8-1.9,2.8
	l-1.1,4.2L49.8,48.3c-1.1,0.6-1.5,1.9-0.9,3c0.6,1.1,1.9,1.5,2.9,0.9l21.1-11.3l2.9,1c0,0,1.2,0.9,3.4,0c2.2-0.9,10.3-5.5,10.3-5.5
	s1.6-1.5-1.2-2.3C86,33.3,84,32.6,83.2,32.3z"/>
<path class="st2" d="M21.2,4.8c-9.1,0-16.5,7.5-16.5,16.7v58.2c0,9.2,7.4,16.7,16.5,16.7h57.6c9.1,0,16.5-7.5,16.5-16.7V21.4
	c0-9.2-7.4-16.7-16.5-16.7H21.2z M78.8,101H21.2C9.5,101,0,91.4,0,79.6V21.4C0,9.6,9.5,0,21.2,0h57.6C90.5,0,100,9.6,100,21.4v58.2
	C100,91.4,90.5,101,78.8,101z"/>
</svg>
