<?xml version="1.0" encoding="utf-8"?>
<!-- Generator: Adobe Illustrator 21.0.0, SVG Export Plug-In . SVG Version: 6.00 Build 0)  -->
<svg version="1.1" id="圖層_1" xmlns="http://www.w3.org/2000/svg" xmlns:xlink="http://www.w3.org/1999/xlink" x="0px" y="0px"
	 viewBox="0 0 100 99" style="enable-background:new 0 0 100 99;" xml:space="preserve">
<style type="text/css">
	.st0{fill-rule:evenodd;clip-rule:evenodd;fill:#FFFFFF;}
	.st1{fill:#F38000;}
	.st2{fill-rule:evenodd;clip-rule:evenodd;fill:#F38000;}
	.st3{fill:#FFFFFF;}
</style>
<path class="st0" d="M21.2,4.6C12,4.6,4.6,11.9,4.6,21V78c0,9,7.4,16.4,16.6,16.4h57.7c9.1,0,16.6-7.3,16.6-16.4V21
	c0-9-7.4-16.4-16.6-16.4H21.2z M78.8,99H21.2C9.5,99,0,89.6,0,78V21C0,9.4,9.5,0,21.2,0h57.7C90.5,0,100,9.4,100,21V78
	C100,89.6,90.5,99,78.8,99z"/>
<path class="st1" d="M81,50.8c-1.9,0.7-3.3,1.7-4.7-2.1L71.9,37c-1.6-3.9,0.3-4,2.2-4.7l1.3-0.5c1.9-0.7,3.5-1.5,4.7,2.1l4.4,11.7
	c1.4,3.4-0.3,4-2.2,4.7L81,50.8z"/>
<path class="st2" d="M75.2,62.3c-0.6,0.6-1.4,0.8-2.3,0.8c-2,0-4.1-1.3-4.1-1.3l-3-1.9l1.9,3c0.6,0.9,2,3.8,0.8,4.7
	c-0.6,0.4-1.3,0.7-2,0.7c-2,0-3.9-1.7-3.9-1.7l-4.3-4l3.1,4.9c0,0,1.6,2.6,0.1,4c-0.5,0.4-1,0.7-1.7,0.7c-2.5,0-7.1-3.7-7.2-3.5
	c0,0,3.7,4.5,2.2,6.2c-0.3,0.3-0.7,0.4-1.2,0.4c-2.2,0-5.6-2.3-6.8-3.1l-0.1-0.1c0-0.2-0.1-0.4-0.2-0.6C45,68.5,31.4,58,28.3,56.3
	c-0.8-1-2.3-3.5-2.8-4.4c1-2.6,4.6-10.9,7.6-17.9c0.6,0,1.3-0.1,1.9-0.1c9.5,0,17.5,5.7,20.6,8.1c0.1,0.1,0.2,0.2,0.3,0.2
	c1.1,0.8,17.7,14.9,18.7,16.3C74.8,58.9,76.4,61.3,75.2,62.3z M23,51.1c-0.4,0-1-0.3-1.6-0.5l-2.1-0.9c-1-0.4-1.9-0.8-2.2-1.5
	c-0.2-0.6,0-1.4,0.5-2.6l5.3-12.5c0.9-2.3,1.7-2.3,2-2.3c0.5,0,1.2,0.3,1.9,0.6l1.7,0.7c0.2,0.1,0.4,0.2,0.7,0.3
	c0.9,0.3,1.5,0.6,1.7,1c0.1,0.4,0.2,1.1-0.6,2.8l-5.3,12.5C24,51.1,23.2,51.1,23,51.1z M75.9,57.7C75,56.5,59,42.5,56.8,41l0,0
	l-0.1-0.1c-3.1-2.5-11.5-8.5-21.6-8.5c-0.8,0-1.7,0-2.5,0.1l-0.3,0c-0.5-1-1.5-1.4-2.5-1.8c-0.2-0.1-0.4-0.1-0.6-0.2l-1.7-0.7
	c-0.8-0.4-1.6-0.7-2.5-0.7c-2,0-2.9,1.9-3.5,3.3l-5.3,12.4c-0.8,1.6-1,2.8-0.6,3.8c0.5,1.3,1.8,1.8,3.1,2.4l2,0.8
	c0.8,0.3,1.5,0.7,2.2,0.7c0.4,0,0.7-0.1,1-0.2c0.2,0.5,2.2,3.7,3.2,5l0.5,0.6l0.2-0.2c2.7,1.7,16.3,12,17.1,14.3l-0.5,0.6l0.8,0.5
	c0.1,0.1,0.3,0.2,0.5,0.3c1.5,1,5,3.4,7.7,3.4c0.9,0,1.7-0.3,2.3-0.9c0.9-0.9,1-2.1,0.6-3.2c1,0.5,2.2,0.9,3.4,0.9
	c1.1,0,2-0.4,2.8-1.1c1.1-1.1,1.2-2.4,1-3.5c0.8,0.4,1.8,0.7,2.9,0.7c1.1,0,2.1-0.3,2.9-1c1.5-1.1,1.2-3.1,0.7-4.7
	c0.8,0.3,1.8,0.6,2.9,0.6c1.3,0,2.5-0.4,3.4-1.2C77.9,62,77.1,59.5,75.9,57.7z"/>
<path class="st3" d="M68.6,34.7c0,0-15.3-7.5-18-6.2C48,29.8,35.2,41,39.4,43.8c4.2,2.8,12.1-3.8,15.8-2.7
	c3.7,1,17.1,14.1,17.1,14.1s3-1.6,2.5-3.9C73.6,46.8,68.6,34.7,68.6,34.7z"/>
<path class="st3" d="M50,66.5c-0.2-1.3-1.3-2.2-2.6-2.2c-0.5,0-1,0.2-1.4,0.5l-0.2,0.2l-1,0.7c0.2-0.6,0.3-1.2,0.2-1.7
	c-0.3-1.4-1.4-2.4-2.8-2.4c-0.5,0-1.1,0.2-1.6,0.5l-0.3,0.2c-0.5,0.3-1,0.7-1.5,1.1c0.5-1,0.8-1.9,0.6-2.7c-0.3-1.5-1.5-2.6-2.9-2.6
	c-0.6,0-1.2,0.2-1.7,0.5l-0.3,0.2c-0.6,0.4-1.3,0.9-2,1.4c1.1-1.5,1.8-3,1.6-4.3c-0.3-1.5-1.5-2.6-3-2.6c-0.6,0-1.1,0.2-1.6,0.5
	l-0.3,0.2c-2,1.4-4.2,6.1-4.3,6.8c-0.4,3.9,2.7,4.1,3.4,3.6c-0.2,0.3-0.4,0.7-0.6,1c-0.7,1.4-0.4,2.5,0,3.1c0.7,1.1,2.3,1.8,3.4,1.8
	c0.3,0,0.5,0,0.7-0.1c0.4-0.1,1.1-0.6,1.9-1.2c-0.4,1.1-0.1,1.9,0.2,2.4c0.7,1.1,2.1,1.7,3.2,1.7c0.3,0,0.5,0,0.7-0.1
	c0.4-0.1,1-0.5,1.8-1.1c-0.1,0.6,0.1,1.1,0.3,1.5c0.6,1,1.9,1.5,2.9,1.5c0.2,0,0.4,0,0.6-0.1C45,74.4,50.5,69.4,50,66.5z"/>
</svg>
