<?xml version="1.0" encoding="utf-8"?>
<!-- Generator: Adobe Illustrator 21.0.0, SVG Export Plug-In . SVG Version: 6.00 Build 0)  -->
<svg version="1.1" id="圖層_1" xmlns="http://www.w3.org/2000/svg" xmlns:xlink="http://www.w3.org/1999/xlink" x="0px" y="0px"
	 viewBox="0 0 100 100" style="enable-background:new 0 0 100 100;" xml:space="preserve">
<style type="text/css">
	.st0{fill:#F38000;}
	.st1{fill:#FFFFFF;}
	.st2{fill-rule:evenodd;clip-rule:evenodd;fill:#FFFFFF;}
</style>
<path class="st0" d="M76.1,76.9l-0.6,0.6c-1.1,1-1.1,2.6-0.2,3.6l6.9,7.5c-3.7,1.7-8.2,0.9-11-2.3c-2.6-2.9-3.2-7-1.7-10.3
	L53.7,58.8c-3.5,1.2-7.5,0.3-10.2-2.6c-2.8-3.1-3.2-7.7-1.3-11.2l6.8,7.5c1,1.1,2.6,1.1,3.6,0.2l0.6-0.6c1-1,1.1-2.6,0.2-3.6
	l-6.8-7.5c3.7-1.7,8.1-0.9,11,2.3c2.6,2.9,3.2,7,1.7,10.3l15.7,17.3c3.5-1.2,7.5-0.3,10.1,2.6c2.9,3.1,3.2,7.7,1.3,11.2l-6.8-7.5
	C78.8,76,77.1,76,76.1,76.9z"/>
<path class="st1" d="M70.6,45.8l-1.4-0.1c-0.4-1.9-1.1-3.8-2.1-5.5l1.1-1c1.7-1.6,1.8-4.3,0.3-6L68,32.8c-1.6-1.7-4.3-1.8-6-0.2
	l-1.3,1.1c-1.6-1-3.3-1.8-5.1-2.3l0.1-1.8c0.1-2.3-1.7-4.3-4.1-4.4l-0.6,0c-2.3-0.1-4.3,1.7-4.4,4.1l-0.1,2c-1.8,0.4-3.5,1.1-5,1.9
	l-1.4-1.6c-1.6-1.7-4.3-1.8-6-0.3l-0.4,0.4c-1.7,1.6-1.8,4.3-0.3,6l1.5,1.7c-0.9,1.5-1.7,3-2.2,4.8l-2.3-0.1
	c-2.3-0.1-4.3,1.7-4.4,4.1l0,0.6c-0.1,2.3,1.7,4.3,4.1,4.4l2.2,0.1c0.3,1.8,1,3.4,1.8,5l-1.6,1.5c-1.7,1.6-1.8,4.3-0.3,6l0.4,0.5
	c1.6,1.7,4.3,1.8,6,0.3l1.5-1.3c1.5,1,3.2,1.8,4.9,2.4l-0.1,1.9c-0.1,2.3,1.7,4.3,4.1,4.4l0.6,0c2.3,0.1,4.3-1.7,4.4-4.1l0.1-1.7
	c1.3-0.2,2.5-0.6,3.7-1.1l-3.2-3.5c-1.5,0.5-3.2,0.7-4.9,0.6c-8.1-0.3-14.5-7.2-14.1-15.4s7.2-14.5,15.4-14.1
	C59.1,35,65.4,41.9,65,50c-0.1,1.7-0.5,3.4-1.1,4.9l3.3,3.6c0.6-1.2,1.1-2.4,1.5-3.6l1.4,0.1c2.3,0.1,4.3-1.7,4.4-4.1l0-0.6
	C74.7,47.9,72.9,45.9,70.6,45.8z"/>
<path class="st1" d="M76.9,17H24.3c-3.4,0-6.1,2.7-6.1,5.9v53.2c0,3.3,2.7,5.9,6.1,5.9L67,82c-0.4-1.8-0.5-4.5,0.4-5.6l-0.7-0.9
	H24.1l0.1-52.6L76.3,23l-0.1,45.1l0.9,0.2c0.9-0.3,1.6-0.4,2.2-0.3c1.2,0.1,2.6,0.5,3.7,1.2l0-46.3C83,19.6,80.3,17,76.9,17z"/>
<path class="st2" d="M21.2,4.6C12,4.6,4.6,12,4.6,21.2v57.7c0,9.2,7.4,16.6,16.6,16.6h57.7c9.2,0,16.6-7.4,16.6-16.6V21.2
	C95.4,12,88,4.6,78.8,4.6H21.2z M78.8,100H21.2C9.5,100,0,90.5,0,78.8V21.2C0,9.5,9.5,0,21.2,0h57.7C90.5,0,100,9.5,100,21.2v57.7
	C100,90.5,90.5,100,78.8,100z"/>
</svg>
