<?xml version="1.0" encoding="utf-8"?>
<!-- Generator: Adobe Illustrator 21.0.0, SVG Export Plug-In . SVG Version: 6.00 Build 0)  -->
<svg version="1.1" id="圖層_1" xmlns="http://www.w3.org/2000/svg" xmlns:xlink="http://www.w3.org/1999/xlink" x="0px" y="0px"
	 viewBox="0 0 100 99" style="enable-background:new 0 0 100 99;" xml:space="preserve">
<style type="text/css">
	.st0{fill-rule:evenodd;clip-rule:evenodd;fill:#FFFFFF;}
	.st1{fill:#F38000;}
</style>
<path class="st0" d="M75.3,34.7v3.7c-1.1,28.3-17.5,39.2-23.5,40.9c-2.2-0.8-21.7-8.5-23.4-40.9v-3.7c1.7-0.9,7.4-4.4,7.6-9.5
	c2.5-0.6,12.3-2.8,15.8-2.8s13.3,2.2,15.8,2.8C67.9,30.3,73.7,33.8,75.3,34.7z M81.4,29.7c-0.1,0-9.2-4.6-8.9-11l0-0.6L71.9,18
	c-0.6-0.1-15.3-3.6-20.4-3.6c-5.2,0-19.8,3.4-20.4,3.6l-0.6,0.2l0,0.6c0.3,6.4-8.8,10.9-8.9,11L21.2,30v5.6
	c1.1,39.4,22.1,49,29.5,51.1l0.9,0.2l0.8-0.2c7.4-2.1,28.4-11.6,29.5-51.1V30L81.4,29.7z"/>
<path class="st1" d="M33,43.4c-0.1-0.2-0.1-0.3-0.1-0.3c-0.1,0,6.7,28.6,19.1,26.8c5-0.8,37.2-48.7,37.2-48.7S53.4,54.9,47.9,57
	C45.2,58.1,33,43.4,33,43.4z"/>
<path class="st0" d="M21.2,4.6C12,4.6,4.6,11.9,4.6,21V78c0,9,7.4,16.4,16.6,16.4h57.7c9.1,0,16.6-7.3,16.6-16.4V21
	c0-9-7.4-16.4-16.6-16.4H21.2z M78.8,99H21.2C9.5,99,0,89.6,0,78V21C0,9.4,9.5,0,21.2,0h57.7C90.5,0,100,9.4,100,21V78
	C100,89.6,90.5,99,78.8,99z"/>
</svg>
