<?xml version="1.0" encoding="utf-8"?>
<!-- Generator: Adobe Illustrator 21.0.0, SVG Export Plug-In . SVG Version: 6.00 Build 0)  -->
<svg version="1.1" id="圖層_1" xmlns="http://www.w3.org/2000/svg" xmlns:xlink="http://www.w3.org/1999/xlink" x="0px" y="0px"
	 viewBox="0 0 100 100" style="enable-background:new 0 0 100 100;" xml:space="preserve">
<style type="text/css">
	.st0{fill:#FFFFFF;}
	.st1{fill:#F38000;}
	.st2{fill-rule:evenodd;clip-rule:evenodd;fill:#FFFFFF;}
</style>
<path class="st0" d="M41.1,76.7c0,0.3,0.4,0.5,0.9,0.5h15.5c0.5,0,0.9-0.2,0.9-0.5v-1.7c0-0.3-0.4-0.5-0.9-0.5H42
	c-0.5,0-0.9,0.2-0.9,0.5V76.7z"/>
<path class="st0" d="M41.1,81.1c0,0.3,4.1,3.9,4.6,3.9h8.3c0.5,0,4.4-3.6,4.4-3.9v-1.7c0-0.3-0.4-0.5-0.9-0.5H42
	c-0.5,0-0.9,0.2-0.9,0.5V81.1z"/>
<path class="st0" d="M44.7,55.4c0.1-3.5,2.4-5,4.1-5.4v-4.8l-4.9,0l-0.1-0.6c0-0.1-0.7-3-3.7-3h-0.1c-2.7,0.1-3.5,2.9-3.5,3.1
	l-0.2,0.6l-4.7,0c1.9,3.3,5.6,10.7,6.5,12.2c3.1,4.7,1.3,9.5,2.4,10.3c0.1,0.1,3.9,0.1,7.8,0.2v0h0.5V61
	C47,60.3,44.6,58.6,44.7,55.4z"/>
<path class="st1" d="M31.9,33.8c3.1,0,4.6,2.2,5.1,3.8l3.7,0.1l0.2-6.4l0.7-0.1c0.1,0,3.5-0.5,3.6-3.7c0.2-3.1-3.3-3.8-3.4-3.9
	l-0.6-0.1l0.2-8.5c-3.8,0-11.4,1.3-15.8,6.6c-4.4,5.5-4.3,12.4-2.9,15.6l4.4,0.1C27.5,36.2,28.9,33.8,31.9,33.8z"/>
<path class="st0" d="M54.5,33.4c-0.1,3.2-2.5,4.6-4.2,5.1v5.2l4,0l0.2,0.5c0,0,1,3.2,3.5,3.3h0.1c3.2,0,4-3,4-3.1l0.1-0.6l6,0
	c1.4-3.2,1.8-10.1-2.5-15.7c-4.2-5.4-11.8-6.9-15.6-7.1v7.2C52,28.7,54.5,30.3,54.5,33.4z"/>
<path class="st0" d="M63.5,45.3c-0.6,1.5-2.3,3.7-5.3,3.7L58,49c-2.9-0.1-4.3-2.6-4.8-3.8l-2.9,0v6.1l-0.7,0.1
	c-0.1,0-3.3,0.5-3.4,4.1c-0.1,3.3,3.4,4.3,3.5,4.3l0.6,0.2v8h0.5v0c3.9,0,7.7-0.1,7.8-0.2c1.1-0.8-0.7-5.6,2.4-10.3
	c1-1.5,4.6-8.9,6.5-12.2L63.5,45.3z"/>
<path class="st2" d="M21.2,4.6C12,4.6,4.6,12,4.6,21.2v57.7c0,9.1,7.4,16.6,16.6,16.6h57.7c9.1,0,16.6-7.4,16.6-16.6V21.2
	C95.4,12,88,4.6,78.8,4.6H21.2z M78.8,100H21.2C9.5,100,0,90.5,0,78.8V21.2C0,9.5,9.5,0,21.2,0h57.7C90.5,0,100,9.5,100,21.2v57.7
	C100,90.5,90.5,100,78.8,100z"/>
</svg>
